<?xml version="1.0" encoding="UTF-8"?>
<svg xmlns="http://www.w3.org/2000/svg" width="35" height="35" viewBox="0 0 35 35" fill="none">
  <path d="M11.0526 23.7171V14.046H8.75V11.7434H14.0461V23.7171H11.0526Z" fill="white"></path>
  <path d="M25.5592 14.7369C25.5592 15.8882 25.0987 16.579 23.9474 17.2698C25.3289 17.7303 26.0197 18.8816 26.0197 20.2632C26.0197 22.3356 24.1776 23.7171 21.1842 23.7171C18.1908 23.7171 16.3487 22.3356 16.3487 20.2632C16.3487 18.8816 17.2697 17.7303 18.6513 17.2698C17.7303 16.8092 17.0395 15.6579 17.0395 14.7369C17.0395 12.8948 18.6513 11.5132 21.1842 11.5132C23.9474 11.5132 25.5592 12.8948 25.5592 14.7369ZM19.3421 20.0329C19.3421 20.954 20.0329 21.6448 21.4145 21.6448C22.7961 21.6448 23.4868 21.1842 23.4868 20.0329C23.4868 19.1119 22.7961 18.4211 21.4145 18.4211C20.0329 18.4211 19.3421 19.1119 19.3421 20.0329ZM19.5724 14.9671C19.5724 15.8882 20.2632 16.3487 21.1842 16.3487C22.1053 16.3487 22.7961 15.8882 22.7961 14.9671C22.7961 14.0461 22.1053 13.5856 21.1842 13.5856C20.2632 13.5856 19.5724 14.0461 19.5724 14.9671Z" fill="white"></path>
  <path d="M31.3158 13.125C31.7763 14.5066 32.0066 16.1184 32.0066 17.7303C32.0066 25.7895 25.5592 32.2368 17.5 32.2368C9.44079 32.2368 2.99342 25.7895 2.99342 17.7303C2.99342 9.67105 9.44079 3.22368 17.5 3.22368C19.1118 3.22368 20.7237 3.45395 22.1053 3.91447V0.69079C20.4934 0.230263 19.1118 0 17.5 0C7.82895 0 0 7.82895 0 17.5C0 27.1711 7.82895 35 17.5 35C27.1711 35 35 27.1711 35 17.5C35 15.8882 34.7697 14.2763 34.3092 12.8947C34.5395 13.125 31.3158 13.125 31.3158 13.125Z" fill="white"></path>
  <path d="M30.3947 4.8355V1.61182H27.8618V4.8355H24.6382V7.3684H27.8618V10.5921H30.3947V7.3684H33.6184V4.8355H30.3947Z" fill="white"></path>
</svg>
