<?xml version="1.0" encoding="UTF-8"?>
<svg xmlns="http://www.w3.org/2000/svg" width="116" height="35" viewBox="0 0 116 35" fill="none">
  <path fill-rule="evenodd" clip-rule="evenodd" d="M14.9772 0C15.4346 0.0967678 15.8979 0.171205 16.3495 0.292164C20.3939 1.33633 23.1996 4.87877 23.1799 8.91567V11.8131C23.1535 11.9452 23.2431 12.0733 23.3801 12.0988C23.3861 12.0999 23.3921 12.1008 23.398 12.1016C24.3206 12.3733 24.8475 12.9836 24.9421 13.9104C25.0156 14.9899 25.6176 15.9712 26.5633 16.5529C27.312 17.0669 27.6206 17.9945 27.3218 18.8325C26.9013 19.8514 27.0192 21.0036 27.6384 21.9235C28.1174 22.6921 28.0128 23.673 27.3817 24.3315C26.5842 25.0926 26.2132 26.1763 26.3838 27.2455C26.5131 28.2115 25.9747 29.0322 25.0328 29.4118C24.0527 29.7855 23.3093 30.5781 23.0217 31.5556C22.7688 32.5025 21.8569 33.1448 20.8446 33.089C19.8508 33.0449 18.8889 33.4329 18.2236 34.146C17.8864 34.5301 17.4523 34.8241 16.9632 35H15.9384L15.4261 34.775C15.3403 34.739 15.2539 34.7048 15.1664 34.6743C14.074 34.3022 13.0433 34.4605 12.0435 35H10.9434C10.5728 34.8383 10.1945 34.6913 9.92627 34.3749C9.20944 33.4982 8.09214 33.0164 6.93661 33.0853C6.00691 33.0914 5.18702 32.4995 4.93129 31.6375C4.64969 30.6015 3.86377 29.7619 2.82367 29.3856C1.937 29.022 1.4155 28.1282 1.55369 27.2085C1.71176 26.2849 1.44233 25.3411 0.816413 24.6254C0.468424 24.2666 0.191654 23.849 0 23.3936V22.5376C0.100556 22.2823 0.218675 22.0337 0.3532 21.7932C0.904809 20.9422 1.01733 19.8934 0.658148 18.9516C0.281788 18.0407 0.628232 17.0004 1.48421 16.471C2.38014 15.8949 2.93986 14.9436 2.99351 13.9067C3.04794 13.0739 3.63255 12.3612 4.46035 12.1183C4.64371 12.099 4.77611 11.9402 4.75623 11.7634C4.75546 11.7577 4.75469 11.7519 4.75372 11.7461C4.75372 10.6165 4.72477 9.48511 4.78074 8.35739C4.98243 4.73995 7.4531 1.60746 11.0148 0.454064C11.6859 0.265553 12.3678 0.114633 13.0568 0.00186092L14.9772 0ZM39.5565 25.087C39.736 25.1542 39.7727 25.2266 39.6974 25.3942C39.5696 25.662 39.4575 25.9367 39.3616 26.2168C39.2882 26.438 39.1878 26.4418 38.991 26.3543C38.5716 26.1548 38.1072 26.059 37.6399 26.0752C37.4296 26.0863 37.2153 26.1291 37.1594 26.3638C37.1034 26.5981 37.2867 26.7246 37.4701 26.8158C37.941 27.0542 38.4351 27.2552 38.8906 27.5174C39.7258 27.9675 40.0351 28.9782 39.5874 29.7933C39.3401 30.2853 38.8754 30.643 38.3232 30.7665C37.4504 30.9936 36.5255 30.9487 35.6809 30.6381C35.5018 30.6035 35.3818 30.4405 35.4069 30.266C35.4281 29.8659 35.4127 29.4734 35.4127 29.0508C36.0573 29.3338 36.6807 29.5569 37.3659 29.5402C37.4686 29.5421 37.5712 29.5355 37.6728 29.5216C37.8575 29.4987 38.0097 29.371 38.0588 29.1978C38.0968 29.0292 38.0041 28.8583 37.8387 28.7921C37.5434 28.6302 37.2346 28.4925 36.9316 28.3455C36.7695 28.2673 36.6035 28.1966 36.4472 28.1091C35.6269 27.6476 35.3046 26.9647 35.4821 26.0863C35.6211 25.4259 36.2638 24.9141 37.1092 24.7837C37.9383 24.6735 38.7831 24.7781 39.5565 25.087ZM54.993 24.9866C55.1281 25.0332 55.2034 25.0834 55.1146 25.2451C55.0259 25.407 55.0104 25.4816 54.802 25.3921C54.155 25.1035 53.4197 25.0566 52.7387 25.26C51.7737 25.5486 51.2951 26.2537 51.1484 27.1732C51.0287 27.8123 51.0847 28.4705 51.3105 29.0823C51.5942 29.911 52.4012 30.468 53.3062 30.4596C53.7835 30.4897 54.2629 30.4475 54.7267 30.3349C54.7981 30.3143 54.9197 30.2454 54.9448 30.3814C54.9699 30.5171 55.0432 30.6606 54.8386 30.7106C53.8968 30.9453 52.953 31.0346 52.0458 30.5973C51.2024 30.1914 50.8125 29.4677 50.6581 28.6061C50.6016 28.348 50.5782 28.0843 50.5887 27.8208C50.6273 26.6557 50.9534 25.6247 52.1192 25.0516C53.0553 24.5919 54.0261 24.6591 54.993 24.9866ZM44.6016 25.1002C44.7425 25.1541 44.7599 25.2174 44.7039 25.3402C44.5707 25.6417 44.4337 25.943 44.3179 26.2538C44.2523 26.4399 44.1674 26.4196 44.0168 26.3582C43.5573 26.1397 43.0456 26.0426 42.5345 26.0772C42.3415 26.1014 42.1756 26.1812 42.1389 26.3786C42.12 26.5478 42.2225 26.708 42.3879 26.7676C42.7739 26.9537 43.1792 27.1398 43.5729 27.3407C44.5765 27.8376 44.9239 28.485 44.6962 29.4417C44.5225 30.1544 44.0072 30.5692 43.3104 30.7572C42.427 30.9948 41.4871 30.9457 40.6354 30.6176C40.4761 30.5858 40.3704 30.4397 40.3941 30.2845C40.4211 29.8921 40.4076 29.4957 40.4076 29.0526C41.0716 29.3392 41.7085 29.5664 42.4072 29.5383C42.5438 29.5457 42.6806 29.5228 42.8067 29.4713C43.1136 29.3189 43.1579 29.0639 42.9032 28.8388C42.7036 28.6932 42.4849 28.5745 42.2528 28.485C41.9517 28.3345 41.6351 28.2077 41.3418 28.044C40.5833 27.6217 40.3536 26.9553 40.479 26.1607C40.5948 25.4333 41.114 25.0442 41.8031 24.8581C42.7681 24.6069 43.6926 24.7503 44.6016 25.1002ZM82.2396 24.7428C82.6715 24.7527 83.0985 24.8337 83.5018 24.9829C83.6582 25.0423 83.7199 25.1037 83.6312 25.2732C83.5578 25.4091 83.5194 25.4833 83.336 25.4016C82.7734 25.1524 82.1435 25.0827 81.537 25.2025C80.4796 25.3977 79.7654 26.1944 79.6533 27.2977C79.5802 28.0216 79.607 28.7438 79.9853 29.4063C80.309 30.01 80.938 30.4051 81.6413 30.4464C82.2423 30.5093 82.8501 30.4549 83.4285 30.2865C83.5424 30.6289 83.4034 30.7369 83.1102 30.7813C82.554 30.8911 81.9837 30.9163 81.4193 30.856C80.4663 30.7603 79.6605 30.1336 79.3621 29.2556C79.0102 28.3558 79.0102 27.3638 79.3621 26.4642C79.8579 25.1616 81.0256 24.7038 82.2396 24.7428ZM76.0673 24.8189C76.2275 24.8189 76.3433 24.8189 76.3472 25.0331C76.3504 25.2115 76.2544 25.2334 76.1363 25.2358L73.674 25.236C73.4502 25.236 73.3884 25.2916 73.394 25.5077C73.4096 26.1755 73.4077 26.8457 73.394 27.5156C73.394 27.7017 73.454 27.7519 73.6432 27.7499C74.4055 27.7408 75.1679 27.7499 75.9303 27.7499C76.0808 27.7499 76.1793 27.7499 76.1812 27.9509C76.1828 28.1183 76.1107 28.1462 76.0006 28.1499L73.6432 28.1502C73.4502 28.1502 73.3923 28.1967 73.3961 28.3844C73.4077 29.1085 73.3961 29.8324 73.3961 30.5561C73.3961 30.7257 73.3961 30.8427 73.1527 30.8466C72.9097 30.8502 72.9097 30.7313 72.9115 30.5636C72.9194 29.6257 72.9155 28.7047 72.9155 27.7836V25.1187C72.9155 24.9045 72.9445 24.8135 73.201 24.8189C74.1566 24.8359 75.1119 24.8189 76.0673 24.8189ZM86.5571 24.7911C86.6988 24.7874 86.7485 24.8598 86.7808 24.9448L86.8256 25.074C87.2759 26.1695 87.7262 27.2656 88.1766 28.3622C88.4698 29.0824 88.769 29.8026 89.0529 30.5267C89.0836 30.6084 89.2573 30.7628 89.0529 30.8075C88.906 30.8391 88.6898 30.9136 88.5933 30.6663C88.3774 30.108 88.1301 29.5756 87.9294 29.0192C87.8931 28.8115 87.6897 28.6712 87.4739 28.7048C86.837 28.7251 86.2001 28.7177 85.5633 28.7048C85.4041 28.6795 85.2526 28.7797 85.2196 28.9317C85.0266 29.4341 84.7969 29.9198 84.6193 30.4204C84.4958 30.7573 84.3337 30.9192 83.94 30.787L86.0804 25.6025C86.1518 25.4294 86.2174 25.2547 86.2985 25.087C86.3564 24.9698 86.3448 24.7969 86.5571 24.7911ZM59.4419 24.821C59.6096 24.821 59.7082 24.821 59.7121 25.0387C59.7154 25.2254 59.6123 25.2397 59.4905 25.24L57.039 25.2397C56.8151 25.2397 56.7533 25.2955 56.7591 25.5114C56.7745 26.0697 56.7726 26.628 56.7591 27.1862C56.7591 27.4001 56.817 27.4708 57.0445 27.4672C57.7606 27.454 58.4788 27.4672 59.1948 27.4672C59.3338 27.4672 59.5422 27.3649 59.548 27.6643C59.5536 27.9641 59.355 27.8748 59.2122 27.8766H57.0272C56.8342 27.8766 56.7533 27.9118 56.7572 28.1241C56.7726 28.7941 56.7745 29.462 56.7572 30.1321C56.7572 30.3666 56.8479 30.3943 57.0505 30.3924H59.4397C59.6079 30.3924 59.7121 30.3924 59.7101 30.6122C59.7082 30.8318 59.6214 30.8392 59.4438 30.8392C58.4788 30.8392 57.5311 30.8299 56.5757 30.8392C56.3634 30.8392 56.3055 30.7834 56.3075 30.5824C56.3131 29.648 56.3075 28.7269 56.3075 27.8059V25.0739C56.3075 24.8675 56.3634 24.8171 56.5738 24.821C57.5388 24.8322 58.4865 24.821 59.4419 24.821ZM63.354 24.8973C64.2516 25.061 64.7341 25.5075 64.7901 26.1999C64.8671 27.1769 64.5353 27.7091 63.6321 28.0514L63.5143 28.0979L65.1703 30.7871C64.848 30.8634 64.6299 30.8541 64.4543 30.5452C64.0451 29.8267 63.5894 29.1327 63.1669 28.42C63.0973 28.2691 62.9332 28.1807 62.7635 28.2023C62.4337 28.2201 62.1031 28.2201 61.7732 28.2023C61.5495 28.1874 61.5127 28.2674 61.5167 28.4609C61.5283 29.1625 61.5167 29.8658 61.5167 30.5675C61.5167 30.722 61.5264 30.8392 61.2948 30.8318C61.1018 30.8318 61.0495 30.7555 61.0495 30.5768V25.0462C61.0495 24.9364 61.0302 24.821 61.2097 24.8247C61.9238 24.8452 62.6439 24.767 63.354 24.8973ZM97.6899 24.8189C97.8518 24.8189 97.9618 24.8189 97.9639 25.035C97.9654 25.2149 97.8705 25.2357 97.754 25.2376L95.2578 25.2376C95.0648 25.2376 95.005 25.2806 95.0088 25.4702C95.0216 26.0622 95.0216 26.6545 95.0088 27.2476C95.0088 27.4337 95.0706 27.4672 95.2424 27.4653C95.9706 27.4579 96.699 27.4579 97.4272 27.4653C97.5661 27.4653 97.7746 27.3574 97.7804 27.6607C97.7864 27.9641 97.5584 27.871 97.4117 27.8729C96.7073 27.8729 96.0011 27.884 95.2887 27.8729C95.0783 27.8729 94.9934 27.9064 95.0011 28.1353C95.0187 28.8033 95.0187 29.4733 95.0011 30.1432C95.0011 30.3591 95.0725 30.3926 95.2713 30.3907C96.0684 30.3795 96.8636 30.3907 97.6607 30.3907C97.8346 30.3907 97.9599 30.3907 97.9543 30.6215C97.9491 30.8192 97.8592 30.8338 97.7351 30.8328L94.8025 30.8317C94.5649 30.8317 94.5244 30.7554 94.5263 30.5507C94.5398 29.637 94.534 28.7269 94.534 27.8152V25.1169C94.534 24.901 94.5668 24.8135 94.8216 24.8189L95.7814 24.8255L97.6899 24.8189ZM69.6095 24.8136C69.7697 24.8136 69.8544 24.8302 69.8544 25.0221C69.8544 25.2136 69.783 25.2377 69.6172 25.234C69.127 25.234 68.6385 25.2433 68.1482 25.234C67.9147 25.234 67.8396 25.2805 67.8452 25.5169C67.8705 26.3524 67.8606 27.1863 67.8606 28.0198V30.5228C67.8606 30.7088 67.8606 30.8335 67.6039 30.8317C67.4207 30.8305 67.384 30.756 67.378 30.6579L67.3781 25.5597C67.3781 25.3161 67.3339 25.2173 67.0521 25.2323C66.5637 25.2582 66.0734 25.2323 65.5832 25.2323C65.4404 25.2323 65.3496 25.2323 65.3537 25.0463C65.3574 24.8602 65.3882 24.8136 65.5795 24.8136C66.9228 24.8211 68.2661 24.8211 69.6095 24.8136ZM77.4974 24.8172C77.6981 24.8115 77.7232 24.914 77.7232 25.0759C77.7191 25.9859 77.7212 26.8977 77.7212 27.8077V30.5749C77.7212 30.7424 77.7077 30.8354 77.4897 30.8299C77.2717 30.8243 77.2542 30.7331 77.2542 30.5656V25.0666C77.2542 24.8805 77.2968 24.8228 77.4974 24.8172ZM70.9718 24.8171C71.1956 24.8246 71.217 24.8843 71.2151 25.0665C71.2085 26.9003 71.2085 28.7333 71.2151 30.5657C71.2151 30.7313 71.1975 30.8279 70.9814 30.83C70.7656 30.8318 70.7461 30.7444 70.748 30.575C70.7521 29.6648 70.748 28.7532 70.748 27.843V25.076C70.748 24.916 70.748 24.8097 70.9718 24.8171ZM46.0299 24.8189C46.3822 24.8387 46.7354 24.8387 47.0876 24.8189C47.3211 24.8061 47.3906 24.8694 47.3887 25.1039C47.3771 26.453 47.3887 27.8039 47.3771 29.153C47.3771 29.3989 47.4234 29.4919 47.7033 29.4807C48.2939 29.4565 48.8864 29.4807 49.4789 29.4696C49.6893 29.4696 49.7916 29.5031 49.7742 29.7375C49.758 30.0226 49.758 30.3083 49.7742 30.5936C49.7742 30.7571 49.7376 30.8279 49.5503 30.8262C48.3433 30.8199 47.1364 30.8199 45.9296 30.8262C45.7192 30.8262 45.6883 30.7406 45.6902 30.5694C45.6864 29.6594 45.6844 28.7475 45.6844 27.8375C45.6844 26.9369 45.696 26.038 45.6844 25.1372C45.6844 24.8655 45.7713 24.8042 46.0299 24.8189ZM93.4205 24.8153C93.5863 24.8153 93.6268 24.8656 93.6308 25.02C93.6345 25.1745 93.5807 25.2433 93.4031 25.2378C92.9148 25.2266 92.4246 25.2489 91.9362 25.2285C91.6834 25.2173 91.6157 25.2806 91.6178 25.5318C91.6313 27.188 91.6178 28.8461 91.6178 30.5023C91.6178 30.614 91.7066 30.787 91.4846 30.8149C91.2625 30.8429 91.1469 30.841 91.1527 30.5637C91.197 29.7244 91.1855 28.8796 91.1855 28.0347V25.5002C91.1855 25.2768 91.116 25.2285 90.8998 25.2359C90.3883 25.2508 89.875 25.2359 89.3558 25.2359C89.2031 25.2359 89.1319 25.2098 89.1338 25.0405C89.1357 24.8712 89.1859 24.8135 89.3674 24.8153H93.4205ZM13.963 12.8245C8.92592 12.8245 4.8425 16.7617 4.8425 21.6183C4.8425 26.4251 8.89562 30.3646 13.8057 30.4205C18.8599 30.4914 23.0167 26.5985 23.0902 21.7253C23.0908 21.689 23.0912 21.6527 23.0912 21.6163L23.0834 21.6183C23.0834 16.7617 19.0002 12.8245 13.963 12.8245ZM86.5726 25.5764L85.4917 28.2692H87.6148L86.5726 25.5764ZM61.6748 25.2376C61.5204 25.2376 61.5167 25.3123 61.5187 25.4237C61.5243 25.7885 61.5223 26.1607 61.5223 26.5349H61.5243V27.6198C61.5243 27.7668 61.5495 27.8375 61.7173 27.8301C62.1592 27.8133 62.6053 27.8301 63.0453 27.8039C63.8038 27.7519 64.2881 27.2772 64.319 26.5963C64.3537 25.8331 64.0104 25.437 63.2034 25.2937C62.6958 25.1986 62.1824 25.2639 61.6748 25.2376ZM16.9479 15.842C17.8029 15.842 18.656 15.855 19.511 15.842C19.8352 15.842 19.868 15.9276 19.7735 16.1974C19.4994 16.9771 19.0979 17.634 18.2101 17.8834C17.9995 17.9301 17.7834 17.9494 17.5674 17.9411C16.4982 17.9634 15.427 17.8927 14.3597 17.982C12.6033 18.1272 11.8197 18.7599 11.4646 20.4163C11.2733 21.3188 11.1577 22.2348 11.1191 23.1554C11.0573 24.5325 11.8737 25.0163 13.0241 25.1093C14.7399 25.2359 16.4615 25.1428 18.1792 25.1652C18.6772 25.1652 18.6772 25.1652 18.5209 25.6343C18.1541 26.719 17.386 27.268 16.2048 27.2587C14.8055 27.2477 13.4024 27.3145 12.005 27.2196C11.0697 27.1664 10.1651 26.8789 9.38012 26.3861C8.3377 25.7696 7.71139 24.6674 7.73378 23.4885C7.72027 22.5078 7.92679 21.5477 8.04645 20.578C8.11169 20.0007 8.26667 19.4361 8.5058 18.9032C9.22957 17.2953 10.5806 16.4654 12.2906 16.0895C13.0578 15.9287 13.8409 15.8488 14.626 15.8513C15.4 15.8382 16.1739 15.842 16.9479 15.842ZM82.4306 11.6884C83.5773 11.6884 84.683 11.787 85.7235 12.2467C87.2423 12.9055 87.966 14.0871 87.8466 15.6894C87.7802 16.6307 87.6595 17.5674 87.4856 18.4957C87.1573 20.2505 86.1346 21.4843 84.3684 22.0426C82.4555 22.6658 80.3883 22.6956 78.4567 22.1282C77.3295 21.8007 76.4147 21.1717 75.9804 20.0421C75.7957 19.5203 75.7297 18.9661 75.7874 18.4175C75.8449 17.4643 75.974 16.5166 76.1734 15.5815C76.6501 13.4861 78.0593 12.2541 80.3404 11.8596C81.0315 11.7508 81.7304 11.6936 82.4306 11.6884ZM113.165 12.0122C114.659 12.4142 115.732 13.2665 115.948 14.8632C115.948 14.8762 115.981 14.8855 116 14.8985L115.996 16.0132C115.866 16.6206 115.776 17.2355 115.724 17.8536C115.531 19.3908 114.952 20.712 113.528 21.5755C112.798 22.0048 111.98 22.2765 111.131 22.372C109.679 22.5581 108.224 22.6009 106.799 22.2008C105.697 21.8918 104.752 21.3578 104.221 20.3101C104.005 19.8847 103.896 19.4159 103.904 18.9423C103.922 17.7247 104.079 16.5125 104.374 15.3284C104.8 13.6256 105.941 12.537 107.676 12.0625C109.465 11.5516 111.366 11.5342 113.165 12.0122ZM54.7537 12.0066C56.0681 12.3584 57.0949 13.0711 57.4558 14.4426C57.546 14.7947 57.5824 15.1577 57.5639 15.5201C57.5274 16.6387 57.378 17.7511 57.1181 18.8418C56.6259 20.7883 55.2363 21.8453 53.258 22.2715C52.4931 22.4326 51.7108 22.5032 50.9284 22.4818C49.7356 22.5041 48.6123 22.3794 47.5624 21.8937C46.0685 21.2033 45.3737 20.0719 45.4934 18.4789C45.5599 17.5379 45.685 16.6012 45.8678 15.6745C46.2422 13.8136 47.3636 12.5761 49.2608 12.0569C51.0513 11.5479 52.9536 11.5304 54.7537 12.0066ZM44.4492 11.9266C44.7503 11.9266 44.7522 12.0215 44.6847 12.243C44.3392 13.3595 43.681 13.8452 42.469 13.8452C41.6718 13.8452 40.8747 13.8211 40.0776 13.8452C38.4294 13.9048 37.3987 14.4035 37.086 16.1993C36.9355 16.953 36.8394 17.7161 36.7985 18.4827C36.7637 19.7332 37.3157 20.2987 38.6204 20.3622C39.764 20.418 40.9075 20.3995 42.0519 20.3922L43.1966 20.3918C43.6849 20.3918 43.6849 20.3918 43.5382 20.8367C43.2178 21.8044 42.5076 22.3067 41.4518 22.3106H39.6897C38.7903 22.2864 37.7596 22.385 36.7541 22.1449C36.2343 22.0245 35.7377 21.8247 35.2834 21.5532C34.2411 20.926 33.7027 20.0105 33.7258 18.8362C33.7397 17.6618 33.8986 16.4928 34.1987 15.3545C34.6986 13.514 36.0457 12.5314 37.9102 12.1332C38.5548 11.9966 39.213 11.9274 39.873 11.9266H44.4492ZM62.883 11.9843C63.3138 12.0576 63.691 12.3064 63.9175 12.6672C64.7766 14.0108 65.6546 15.3451 66.5195 16.6831C66.5851 16.7836 66.6584 16.8804 66.7354 16.992C68.0594 15.5442 69.3796 14.1243 70.671 12.6784C71.0906 12.2076 71.702 11.9359 72.3461 11.934C72.8018 11.9136 73.2571 11.934 73.7126 11.921C73.9558 11.9098 73.9907 11.9973 73.9635 12.2001C73.8129 13.3316 73.674 14.463 73.5273 15.5945C73.3092 17.2823 73.0816 18.9666 72.8732 20.6563C72.7495 21.6536 72.0452 22.2807 71.001 22.2846H69.8042C69.6112 22.2846 69.5535 22.2398 69.5803 22.0446C69.7386 20.8702 69.8833 19.6922 70.032 18.5088C70.1207 17.8127 70.2109 17.1167 70.3022 16.4207L70.225 16.4002L68.7253 18.2184C68.1945 18.8622 67.6698 19.5117 67.133 20.152C66.554 20.8478 65.946 20.7976 65.5118 20.0104C64.9135 18.9275 64.325 17.8406 63.7323 16.7557L63.4987 16.3258C63.3999 16.6857 63.3383 17.054 63.3154 17.4256C63.1629 18.5237 63.0278 19.6233 62.8908 20.7232C62.8118 21.6181 62.0271 22.3005 61.0958 22.2846C60.6635 22.2846 60.2292 22.2698 59.7971 22.2846C59.5498 22.2956 59.519 22.2007 59.546 22.0016C59.6929 20.885 59.8336 19.7685 59.9746 18.6371L60.7677 12.3658C60.8237 11.9191 60.8121 11.9117 61.283 11.921L61.9249 11.9116C62.2458 11.9088 62.5659 11.9184 62.883 11.9843ZM91.5154 11.9247L94.2291 11.9266C95.2809 11.9415 96.5241 11.8763 97.7572 12.0568C98.5846 12.1469 99.3808 12.4147 100.087 12.8403C101.052 13.4618 101.479 14.3607 101.469 15.4456C101.452 16.6094 101.313 17.7684 101.054 18.905C100.668 20.6859 99.4423 21.6964 97.6279 22.0686C96.8923 22.216 96.1423 22.2878 95.3911 22.2826H91.6312C91.2898 22.294 90.9484 22.2534 90.6199 22.1616C90.0273 21.9756 89.7899 21.6333 89.8671 21.0451C90.1221 19.0651 90.3863 17.0851 90.6392 15.1032C90.6643 14.9171 90.7472 14.8743 90.9229 14.878H92.2894C93.1598 14.8892 93.735 15.5479 93.625 16.3909C93.4628 17.6433 93.3065 18.8959 93.1482 20.1463C93.1347 20.2468 93.0614 20.3863 93.2584 20.3826C94.2349 20.3623 95.2172 20.4738 96.1842 20.2505C97.1313 20.0698 97.8601 19.3375 98.0081 18.4175C98.1685 17.6433 98.2833 16.8612 98.3517 16.0746C98.4804 14.6404 97.7971 13.896 96.3019 13.8415C95.2213 13.8024 94.1383 13.8284 93.0556 13.8247H92.714C91.6486 13.8247 91.1699 13.3986 91.0871 12.3732C91.0466 11.9247 91.0466 11.9247 91.5154 11.9247ZM51.5479 13.5884C50.1834 13.6796 49.3631 14.3533 49.006 15.6354C48.8937 16.0941 48.8152 16.5599 48.7706 17.0293C48.6857 17.6917 48.5486 18.3505 48.5988 19.026C48.6548 19.7704 49.0311 20.2505 49.7568 20.4813C50.1517 20.6 50.5659 20.6474 50.9786 20.6208H50.9766C52.8604 20.6208 53.7501 19.9751 54.0956 18.3393C54.2855 17.4366 54.4073 16.5218 54.4604 15.6019C54.5299 14.4128 53.9335 13.741 52.706 13.607C52.3213 13.5665 51.9336 13.5603 51.5479 13.5884ZM81.8767 13.5959C80.5761 13.6554 79.7421 14.2918 79.3503 15.4884C79.2312 15.8781 79.1538 16.2784 79.1187 16.6831C79.0357 17.4461 78.8427 18.1979 78.8929 18.9721C78.9488 19.8299 79.3445 20.2877 80.2034 20.5222C80.5608 20.6093 80.93 20.6426 81.2977 20.6208H81.8306C82.9238 20.6266 83.895 19.949 84.2314 18.946C84.3842 18.5093 84.4815 18.0563 84.5209 17.5968C84.606 16.8785 84.7739 16.1677 84.7585 15.4419C84.7332 14.3421 84.1968 13.7671 83.0697 13.6182C82.6736 13.5748 82.2743 13.5674 81.8767 13.5959ZM110.197 13.594C108.685 13.594 107.699 14.3384 107.388 15.775C107.189 16.7315 107.06 17.7005 107.002 18.6743C106.927 19.776 107.477 20.3938 108.62 20.5855C108.899 20.6205 109.181 20.6324 109.463 20.6208H109.974C111.082 20.6106 112.053 19.9059 112.37 18.8827C112.492 18.5202 112.573 18.1456 112.611 17.7662C112.704 16.9399 112.906 16.123 112.856 15.2819C112.8 14.3235 112.264 13.7671 111.287 13.6331C110.925 13.5951 110.561 13.5821 110.197 13.594ZM13.996 4.38731C11.4155 4.36628 9.30575 6.36621 9.28394 8.85426C9.28336 8.90822 9.28394 8.96219 9.28549 9.01616C9.28549 9.12781 9.28549 9.20225 9.44568 9.24133C10.5543 9.56736 11.7585 9.34442 12.6631 8.64584C13.4235 8.06895 14.4947 8.06895 15.2551 8.64584C15.8899 9.12223 16.6705 9.38276 17.4747 9.38648L17.4689 9.38834C17.764 9.37587 18.0574 9.33735 18.3452 9.27297C18.5575 9.23016 18.6289 9.15201 18.6289 8.93056C18.6509 6.44232 16.5765 4.40833 13.996 4.38731Z" fill="white"></path>
</svg>
