<?xml version="1.0" encoding="UTF-8"?>
<svg xmlns="http://www.w3.org/2000/svg" xmlns:v="https://vecta.io/nano" width="115" height="35" fill="none">
  <path d="M43.684 15.096c-.624 0-1.172-.12-1.644-.36-.472-.248-.836-.592-1.092-1.032s-.384-.948-.384-1.524V9.408c0-.576.128-1.084.384-1.524a2.59 2.59 0 0 1 1.092-1.02c.472-.24 1.02-.36 1.644-.36.616 0 1.156.116 1.62.348.472.224.836.548 1.092.972.264.416.396.9.396 1.452 0 .072-.064.116-.192.132l-1.284.084h-.048c-.112 0-.168-.02-.168-.06V9.36c0-.424-.132-.764-.396-1.02-.256-.256-.596-.384-1.02-.384-.432 0-.78.128-1.044.384-.256.256-.384.596-.384 1.02v2.892c0 .416.128.752.384 1.008.264.256.612.384 1.044.384.424 0 .764-.128 1.02-.384.264-.256.396-.592.396-1.008 0-.04.016-.072.048-.096a.2.2 0 0 1 .156-.036l1.284.06c.136.016.204.036.204.06v.06c0 .552-.132 1.04-.396 1.464a2.56 2.56 0 0 1-1.092.984c-.464.232-1.004.348-1.62.348zm6.965 0c-.68 0-1.26-.176-1.74-.528s-.808-.832-.984-1.44a4.27 4.27 0 0 1-.168-1.224c0-.488.06-.912.18-1.272a2.6 2.6 0 0 1 .984-1.392c.48-.336 1.06-.504 1.74-.504.656 0 1.216.168 1.68.504a2.6 2.6 0 0 1 .984 1.38 4.06 4.06 0 0 1 .18 1.26c0 .416-.052.82-.156 1.212-.184.624-.516 1.116-.996 1.476-.472.352-1.04.528-1.704.528zm0-1.452a.97.97 0 0 0 .66-.24c.184-.16.316-.38.396-.66.064-.216.096-.496.096-.84 0-.336-.032-.62-.096-.852-.08-.272-.212-.484-.396-.636s-.412-.228-.684-.228a1.02 1.02 0 0 0-.672.228c-.184.152-.316.364-.396.636-.064.232-.096.516-.096.852 0 .328.032.608.096.84.08.28.212.5.396.66a1.05 1.05 0 0 0 .696.24zm7.16-4.908c.64 0 1.156.196 1.548.588s.588.924.588 1.596v3.876c0 .136-.068.204-.204.204h-1.284c-.136 0-.204-.068-.204-.204v-3.528c0-.32-.088-.58-.264-.78s-.412-.3-.708-.3-.536.1-.72.3-.276.46-.276.78v3.528c0 .136-.068.204-.204.204h-1.284c-.136 0-.204-.068-.204-.204v-5.76c0-.136.068-.204.204-.204h1.284c.136 0 .204.068.204.204v.336c0 .032.008.052.024.06s.032 0 .048-.024c.328-.448.812-.672 1.452-.672zm6.551 0c.64 0 1.156.196 1.548.588s.588.924.588 1.596v3.876c0 .136-.068.204-.204.204h-1.284c-.136 0-.204-.068-.204-.204v-3.528c0-.32-.088-.58-.264-.78s-.412-.3-.708-.3-.536.1-.72.3-.276.46-.276.78v3.528c0 .136-.068.204-.204.204h-1.284c-.136 0-.204-.068-.204-.204V6.804c0-.136.068-.204.204-.204h1.284c.136 0 .204.068.204.204v2.568c0 .032.008.052.024.06s.032 0 .048-.024c.328-.448.812-.672 1.452-.672zm6.323 4.932c.528-.024.932-.208 1.212-.552.048-.056.1-.084.156-.084.048 0 .092.02.132.06l.684.66c.048.048.072.096.072.144 0 .056-.016.104-.048.144a2.78 2.78 0 0 1-1.02.78 3.23 3.23 0 0 1-1.344.276c-.736 0-1.348-.188-1.836-.564-.48-.376-.804-.892-.972-1.548-.096-.352-.144-.724-.144-1.116 0-.464.044-.856.132-1.176a2.57 2.57 0 0 1 .96-1.428c.488-.36 1.064-.54 1.728-.54.784 0 1.404.232 1.86.696.464.464.764 1.116.9 1.956l.072.876c0 .136-.068.204-.204.204h-3.684c-.048 0-.072.024-.072.072a1.74 1.74 0 0 0 .084.372 1.01 1.01 0 0 0 .468.576c.24.128.528.192.864.192zm-.312-3.48c-.256 0-.472.064-.648.192a.92.92 0 0 0-.348.516l-.072.3c-.008.048.012.072.06.072h2.04c.04 0 .06-.016.06-.048a.87.87 0 0 0-.048-.276 1.08 1.08 0 0 0-.372-.552c-.176-.136-.4-.204-.672-.204zm7.654 2.664c.008-.032.036-.068.084-.108.048-.048.1-.068.156-.06l1.26.192c.064.016.108.044.132.084a.18.18 0 0 1 .036.144c-.016.128-.036.22-.06.276-.144.44-.396.804-.756 1.092-.352.288-.776.476-1.272.564-.032.008-.052.02-.06.036 0 .024.012.044.036.06.344.336.516.688.516 1.056a1.14 1.14 0 0 1-.036.276c-.08.272-.224.464-.432.576a1.35 1.35 0 0 1-.708.18 2.3 2.3 0 0 1-.684-.108c-.112-.032-.16-.112-.144-.24l.06-.48c.024-.128.108-.176.252-.144a1.01 1.01 0 0 0 .168.024c.208 0 .34-.092.396-.276.008-.024.012-.056.012-.096 0-.24-.2-.52-.6-.84l-.084-.036a2.75 2.75 0 0 1-1.224-.6 2.68 2.68 0 0 1-.756-1.128c-.136-.4-.204-.872-.204-1.416 0-.536.068-1 .204-1.392a2.49 2.49 0 0 1 .996-1.284c.472-.312 1.028-.468 1.668-.468s1.2.16 1.68.48c.488.32.812.724.972 1.212.048.112.08.236.096.372v.024c0 .104-.06.168-.18.192l-1.26.192-.06.012c-.096 0-.152-.048-.168-.144l-.036-.168c-.056-.208-.18-.38-.372-.516s-.42-.204-.684-.204c-.256 0-.472.064-.648.192s-.3.304-.372.528c-.088.24-.132.568-.132.984s.04.744.12.984c.072.24.196.428.372.564a1.08 1.08 0 0 0 .66.204c.248 0 .464-.064.648-.192a1.03 1.03 0 0 0 .396-.54l.012-.06zm5.161-4.116c.52 0 .984.092 1.392.276.408.176.724.42.948.732.232.312.348.66.348 1.044v4.008c0 .136-.068.204-.204.204h-1.284c-.136 0-.204-.068-.204-.204v-.288c0-.032-.008-.048-.024-.048-.016-.008-.036 0-.06.024-.368.408-.916.612-1.644.612-.616 0-1.112-.152-1.488-.456s-.564-.752-.564-1.344c0-.616.216-1.092.648-1.428.432-.344 1.048-.516 1.848-.516h1.212c.048 0 .072-.024.072-.072v-.252c0-.264-.084-.468-.252-.612-.16-.152-.396-.228-.708-.228-.24 0-.44.04-.6.12-.152.08-.256.192-.312.336-.048.112-.128.164-.24.156l-1.332-.168a.4.4 0 0 1-.156-.048.13.13 0 0 1-.036-.12 1.62 1.62 0 0 1 .408-.888c.24-.264.552-.468.936-.612.392-.152.824-.228 1.296-.228zm-.24 5.1c.344 0 .636-.092.876-.276s.36-.42.36-.708v-.42c0-.048-.024-.072-.072-.072h-.852c-.36 0-.644.068-.852.204a.65.65 0 0 0-.312.576.64.64 0 0 0 .228.516c.16.12.368.18.624.18zm8.97 1.248c-.536 0-1.004-.076-1.404-.228s-.708-.364-.924-.636-.324-.58-.324-.924v-.06c0-.136.068-.204.204-.204h1.212c.136 0 .204.024.204.072v.084c0 .176.096.328.288.456.192.12.436.18.732.18.272 0 .492-.052.66-.156s.252-.24.252-.408c0-.144-.072-.252-.216-.324s-.38-.148-.708-.228l-.876-.276c-.52-.176-.932-.392-1.236-.648s-.456-.624-.456-1.104c0-.592.232-1.06.696-1.404.464-.352 1.072-.528 1.824-.528.512 0 .96.084 1.344.252.392.16.692.388.9.684.216.296.324.632.324 1.008 0 .04-.02.076-.06.108-.032.024-.08.036-.144.036h-1.176c-.136 0-.204-.024-.204-.072v-.072c0-.176-.088-.324-.264-.444s-.412-.18-.708-.18c-.264 0-.484.048-.66.144-.168.096-.252.228-.252.396 0 .16.08.28.24.36.168.08.44.164.816.252a5.91 5.91 0 0 1 .672.18c.576.168 1.028.384 1.356.648s.492.648.492 1.152c0 .592-.236 1.056-.708 1.392-.472.328-1.104.492-1.896.492zm6.551-1.416c.528-.024.932-.208 1.212-.552.048-.056.1-.084.156-.084.048 0 .092.02.132.06l.684.66c.048.048.072.096.072.144 0 .056-.016.104-.048.144a2.78 2.78 0 0 1-1.02.78 3.23 3.23 0 0 1-1.344.276c-.736 0-1.348-.188-1.836-.564-.48-.376-.804-.892-.972-1.548-.096-.352-.144-.724-.144-1.116 0-.464.044-.856.132-1.176a2.57 2.57 0 0 1 .96-1.428c.488-.36 1.064-.54 1.728-.54.784 0 1.404.232 1.86.696.464.464.764 1.116.9 1.956l.072.876c0 .136-.068.204-.204.204h-3.684c-.048 0-.072.024-.072.072a1.74 1.74 0 0 0 .084.372 1.01 1.01 0 0 0 .468.576c.24.128.528.192.864.192zm-.312-3.48c-.256 0-.472.064-.648.192a.92.92 0 0 0-.348.516l-.072.3c-.008.048.012.072.06.072h2.04c.04 0 .06-.016.06-.048a.87.87 0 0 0-.048-.276 1.08 1.08 0 0 0-.372-.552c-.176-.136-.4-.204-.672-.204zm7.499-1.152c0-.136.068-.204.204-.204h1.284c.136 0 .204.068.204.204v5.76c0 .136-.068.204-.204.204h-1.284c-.136 0-.204-.068-.204-.204v-.324c0-.032-.012-.048-.036-.048-.016-.008-.032 0-.048.024-.312.424-.804.636-1.476.636-.608 0-1.108-.184-1.5-.552s-.588-.884-.588-1.548V9.036c0-.136.068-.204.204-.204h1.272c.136 0 .204.068.204.204v3.528c0 .32.084.58.252.78.176.2.416.3.72.3a.96.96 0 0 0 .672-.24c.176-.168.284-.384.324-.648v-3.72zm5.399 6.048c-.536 0-1.004-.076-1.404-.228s-.708-.364-.924-.636-.324-.58-.324-.924v-.06c0-.136.068-.204.204-.204h1.212c.136 0 .204.024.204.072v.084c0 .176.096.328.288.456.192.12.436.18.732.18.272 0 .492-.052.66-.156s.252-.24.252-.408c0-.144-.072-.252-.216-.324s-.38-.148-.708-.228l-.876-.276c-.52-.176-.932-.392-1.236-.648s-.456-.624-.456-1.104c0-.592.232-1.06.696-1.404.464-.352 1.072-.528 1.824-.528.512 0 .96.084 1.344.252.392.16.692.388.9.684.216.296.324.632.324 1.008 0 .04-.02.076-.06.108-.032.024-.08.036-.144.036h-1.176c-.136 0-.204-.024-.204-.072v-.072c0-.176-.088-.324-.264-.444s-.412-.18-.708-.18c-.264 0-.484.048-.66.144-.168.096-.252.228-.252.396 0 .16.08.28.24.36.168.08.44.164.816.252a5.91 5.91 0 0 1 .672.18c.576.168 1.028.384 1.356.648s.492.648.492 1.152c0 .592-.236 1.056-.708 1.392-.472.328-1.104.492-1.896.492zM40.852 29c-.136 0-.204-.068-.204-.204v-7.992c0-.136.068-.204.204-.204h1.284c.136 0 .204.068.204.204v7.992c0 .136-.068.204-.204.204h-1.284zm3.696-6.756c-.304 0-.552-.092-.744-.276-.192-.192-.288-.436-.288-.732s.096-.536.288-.72c.192-.192.44-.288.744-.288.312 0 .56.092.744.276.192.184.288.428.288.732s-.096.548-.288.732c-.184.184-.432.276-.744.276zM43.912 29c-.136 0-.204-.068-.204-.204v-5.76c0-.136.068-.204.204-.204h1.284c.136 0 .204.068.204.204v5.76c0 .136-.068.204-.204.204h-1.284zm9.657-6.264c.624 0 1.112.188 1.464.564s.528.904.528 1.584v3.912c0 .136-.068.204-.204.204h-1.284c-.136 0-.204-.068-.204-.204v-3.54c0-.328-.084-.588-.252-.78s-.392-.288-.672-.288-.508.096-.684.288-.264.448-.264.768v3.552c0 .136-.068.204-.204.204h-1.272c-.136 0-.204-.068-.204-.204v-3.54c0-.32-.088-.576-.264-.768-.176-.2-.404-.3-.684-.3-.256 0-.472.076-.648.228-.168.152-.268.364-.3.636v3.744c0 .136-.068.204-.204.204h-1.284c-.136 0-.204-.068-.204-.204v-5.76c0-.136.068-.204.204-.204h1.284c.136 0 .204.068.204.204v.384c0 .032.008.052.024.06.024.008.044-.004.06-.036.328-.472.832-.708 1.512-.708.4 0 .748.084 1.044.252.296.16.524.396.684.708.008.032.02.048.036.048.024-.008.044-.024.06-.048.184-.32.424-.56.72-.72s.632-.24 1.008-.24zm4.116-.492c-.304 0-.552-.092-.744-.276-.192-.192-.288-.436-.288-.732s.096-.536.288-.72c.192-.192.44-.288.744-.288.312 0 .56.092.744.276.192.184.288.428.288.732s-.096.548-.288.732c-.184.184-.432.276-.744.276zM57.049 29c-.136 0-.204-.068-.204-.204v-5.76c0-.136.068-.204.204-.204h1.284c.136 0 .204.068.204.204v5.76c0 .136-.068.204-.204.204h-1.284zm6.357-5.016c0 .136-.068.204-.204.204h-1.08c-.048 0-.072.024-.072.072v2.484c0 .264.052.46.156.588.112.12.288.18.528.18h.336c.136 0 .204.068.204.204v1.032c0 .128-.068.2-.204.216l-.66.024c-.664 0-1.16-.112-1.488-.336s-.496-.64-.504-1.248V24.26c0-.048-.024-.072-.072-.072h-.612c-.136 0-.204-.068-.204-.204v-.948c0-.136.068-.204.204-.204h.612c.048 0 .072-.024.072-.072v-1.356c0-.136.068-.204.204-.204h1.224c.136 0 .204.068.204.204v1.356c0 .048.024.072.072.072h1.08c.136 0 .204.068.204.204v.948zm3.913 3.684c.528-.024.932-.208 1.212-.552.048-.056.1-.084.156-.084.048 0 .092.02.132.06l.684.66c.048.048.072.096.072.144 0 .056-.016.104-.048.144a2.78 2.78 0 0 1-1.02.78 3.23 3.23 0 0 1-1.344.276c-.736 0-1.348-.188-1.836-.564-.48-.376-.804-.892-.972-1.548-.096-.352-.144-.724-.144-1.116 0-.464.044-.856.132-1.176.16-.592.48-1.068.96-1.428.488-.36 1.064-.54 1.728-.54.784 0 1.404.232 1.86.696.464.464.764 1.116.9 1.956l.072.876c0 .136-.068.204-.204.204h-3.684c-.048 0-.072.024-.072.072a1.74 1.74 0 0 0 .084.372 1.01 1.01 0 0 0 .468.576c.24.128.528.192.864.192zm-.312-3.48c-.256 0-.472.064-.648.192a.92.92 0 0 0-.348.516l-.072.3c-.008.048.012.072.06.072h2.04c.04 0 .06-.016.06-.048a.87.87 0 0 0-.048-.276 1.08 1.08 0 0 0-.372-.552c-.176-.136-.4-.204-.672-.204zm6.358 4.896c-.536 0-1.004-.076-1.404-.228s-.708-.364-.924-.636-.324-.58-.324-.924v-.06c0-.136.068-.204.204-.204h1.212c.136 0 .204.024.204.072v.084c0 .176.096.328.288.456.192.12.436.18.732.18.272 0 .492-.052.66-.156s.252-.24.252-.408c0-.144-.072-.252-.216-.324s-.38-.148-.708-.228l-.876-.276c-.52-.176-.932-.392-1.236-.648s-.456-.624-.456-1.104c0-.592.232-1.06.696-1.404.464-.352 1.072-.528 1.824-.528.512 0 .96.084 1.344.252.392.16.692.388.9.684.216.296.324.632.324 1.008 0 .04-.02.076-.06.108-.032.024-.08.036-.144.036h-1.176c-.136 0-.204-.024-.204-.072v-.072c0-.176-.088-.324-.264-.444s-.412-.18-.708-.18c-.264 0-.484.048-.66.144-.168.096-.252.228-.252.396 0 .16.08.28.24.36.168.08.44.164.816.252.232.048.456.108.672.18.576.168 1.028.384 1.356.648s.492.648.492 1.152c0 .592-.236 1.056-.708 1.392-.472.328-1.104.492-1.896.492z" fill="#fff"></path>
  <path d="M26.991 20.748v-6.737c0-1.515-1.252-2.752-2.794-2.752-.282 0-.554.043-.81.12v-.205c0-1.515-1.252-2.752-2.794-2.752-.372 0-.728.073-1.057.205C19.099 7.67 18.124 7 16.994 7s-2.105.67-2.543 1.626a2.79 2.79 0 0 0-1.057-.205c-1.538 0-2.794 1.233-2.794 2.752v6.392l-.437-.205a6.4 6.4 0 0 0-2.17-.422H7v8.069c0 1.383.247 2.722.741 3.994l1.854-.695c-.403-1.045-.611-2.155-.611-3.298v-5.974a3.16 3.16 0 0 1 .481.158c.524.213 1.118.584 1.135 1.523v.034 3.546h1.984v-3.546-.038-9.536c0-.44.364-.798.81-.798s.81.358.81.798v10.283h1.984V9.752c0-.439.364-.798.81-.798s.81.358.81.798v11.704h1.984V11.173c0-.44.364-.798.81-.798s.81.358.81.798v10.996h1.984v-8.158c0-.44.364-.798.81-.798s.81.358.81.798v8.866 5.773H27v-7.902h-.009z" fill="#31c27c"></path>
  <path d="M29.744 2.638a20.39 20.39 0 0 1-9.158-.505A8.99 8.99 0 0 1 17 0a8.7 8.7 0 0 1-3.586 2.133c-1.801.564-4.833 1.166-9.158.505L3 2.447v15.216c.101 2.973.983 5.869 2.561 8.38 1.117 1.832 2.524 3.469 4.166 4.843 2.062 1.701 4.388 3.041 6.887 3.965L17 35l.386-.148c2.499-.924 4.825-2.265 6.887-3.965 1.642-1.37 3.049-3.007 4.166-4.843A16.83 16.83 0 0 0 31 17.663V2.447l-1.251.191h-.004zm-.928 15.021c-.113 2.566-.886 5.055-2.242 7.231-2.079 3.439-5.299 6.039-9.57 7.74-4.275-1.701-7.491-4.304-9.57-7.74-1.356-2.171-2.129-4.665-2.247-7.231V4.983C11.701 5.696 15.509 3.838 17 2.867c1.495.971 5.299 2.829 11.816 2.116v12.676z" fill="#fff"></path>
</svg>
