<?xml version="1.0" encoding="UTF-8"?>
<svg xmlns="http://www.w3.org/2000/svg" width="98" height="36" viewBox="0 0 98 36" fill="none">
  <path d="M20.0039 17.2111C18.9506 17.193 18.1807 16.2378 18.257 15.0938C18.3478 13.9716 19.2448 13.0418 20.2799 13.0128C21.6636 12.9873 22.1139 14.0841 23.3706 14.0878C24.6562 14.1023 25.2918 12.991 26.8208 13.0164C26.8208 13.0164 26.8196 13.0164 26.8171 13.0164C26.8462 13.0164 26.8716 13.0164 26.9043 13.0164C28.1173 13.0491 29.0689 14.0478 29.0253 15.2572C28.9817 16.4848 27.943 17.4472 26.7118 17.4073C26.6828 17.4073 26.6537 17.4073 26.6283 17.4036C25.0775 17.3491 24.5509 16.1833 23.258 16.1507C21.9977 16.1216 21.4021 17.2438 20.0002 17.2039" fill="#FF5100"></path>
  <path d="M19.8622 35.9949C18.9724 36.0385 18.2424 35.7988 18.2606 35.4138C18.2606 34.9526 19.0669 34.5095 20.062 34.4732C21.0607 34.4078 21.7726 34.7601 21.66 35.2141C21.5583 35.5881 20.7484 35.9186 19.8622 35.9949Z" fill="#93D500"></path>
  <path d="M14.745 35.8169C13.8952 35.6825 13.0707 35.3085 12.9073 34.9416C12.7439 34.4949 13.3867 34.1971 14.331 34.3133C15.3188 34.4078 16.1687 34.8908 16.2159 35.352C16.2776 35.7334 15.613 35.9222 14.745 35.8169Z" fill="#FF5100"></path>
  <path d="M10.2125 34.6293C9.54786 34.3279 8.78518 33.8703 8.46558 33.5543C8.14235 33.1548 8.48737 33.0241 9.23916 33.2819C10.0418 33.5216 10.8953 34.1027 11.1095 34.5277C11.3311 34.8763 10.9243 34.9054 10.2125 34.6293Z" fill="#FF5100"></path>
  <path d="M25.7784 32.8533C24.8669 33.0277 24.2131 32.6064 24.3511 31.8655C24.471 31.0665 25.3935 30.2748 26.385 30.1367C27.3401 29.9769 27.9285 30.4963 27.7287 31.2553C27.5072 31.9599 26.6501 32.6572 25.7748 32.8533" fill="#93D500"></path>
  <path d="M14.1857 33.3909C13.2015 33.2856 12.2935 32.6246 12.1628 31.8837C12.0393 31.0774 12.802 30.4673 13.8734 30.5544C14.9702 30.6234 15.9144 31.3752 15.958 32.1997C16.0016 32.9587 15.2062 33.4744 14.1893 33.3909" fill="#FF5100"></path>
  <path d="M7.86272 28.4734C6.98019 28.31 6.15576 27.4274 5.99233 26.4832C5.85432 25.5098 6.46447 24.7799 7.39058 24.8852C8.36754 24.9796 9.27186 25.9239 9.36992 26.9626C9.48614 27.9613 8.79609 28.6259 7.86272 28.4734Z" fill="#93D500"></path>
  <path d="M27.2348 19.1832C28.288 19.1651 29.0907 20.0912 29.0543 21.2389C29.0035 22.3611 28.1391 23.3235 27.1041 23.3889C25.7203 23.4615 25.2337 22.3865 23.9807 22.4228C22.695 22.4555 22.0994 23.585 20.5668 23.6141C20.5668 23.6141 20.568 23.6141 20.5704 23.6141C20.5414 23.6141 20.5159 23.6141 20.4833 23.6177C19.2702 23.6286 18.286 22.6625 18.286 21.4531C18.286 20.2437 19.292 19.2268 20.5232 19.2232C20.5523 19.2232 20.5813 19.2232 20.6067 19.2232C22.1612 19.2232 22.7241 20.3708 24.0206 20.3563C25.2809 20.3418 25.8366 19.1978 27.2384 19.1905" fill="#93D500"></path>
  <path d="M13.5174 23.5595C12.3516 23.5232 11.3892 22.5426 11.3565 21.3587C11.3347 20.1674 12.2681 19.1977 13.4521 19.2014C14.6578 19.2014 15.653 20.2074 15.6602 21.4313C15.6675 22.6371 14.7087 23.585 13.5211 23.5595" fill="#FF5100"></path>
  <path d="M2.41136 17.5053C1.82663 17.5271 1.4344 16.7499 1.48888 15.7911C1.57241 14.8468 2.07723 13.9788 2.65106 13.8662C3.29389 13.7609 3.79508 14.5018 3.72607 15.5441C3.67886 16.6046 3.06871 17.4908 2.41136 17.5053Z" fill="#FF5100"></path>
  <path d="M7.39057 11.669C6.46083 11.7743 5.85068 11.0443 5.99232 10.071C6.15575 9.12673 6.98381 8.2442 7.86271 8.08076C8.79608 7.9246 9.48613 8.58922 9.36991 9.5916C9.27185 10.6303 8.36753 11.5746 7.39057 11.669Z" fill="#FF5100"></path>
  <path d="M26.3886 6.41737C25.3971 6.27573 24.4746 5.48763 24.3548 4.68863C24.2131 3.94774 24.8669 3.52281 25.7821 3.70077C26.6573 3.90052 27.5145 4.5942 27.736 5.29877C27.9321 6.05782 27.3474 6.57717 26.3922 6.41737" fill="#93D500"></path>
  <path d="M20.298 5.88353C19.1795 5.85811 18.2642 5.13175 18.2679 4.30369C18.257 3.54101 19.1032 2.98171 20.1491 3.01803C21.1733 3.07614 22.0631 3.70444 22.1575 4.45986C22.2338 5.27702 21.413 5.93074 20.298 5.88353Z" fill="#FF5100"></path>
  <path d="M20.3126 7.31807C18.8526 7.29264 18.3005 8.24418 17.0221 8.25507C15.7546 8.2805 15.2389 7.34712 13.808 7.41613C13.808 7.41613 13.7825 7.41613 13.7717 7.41613C12.6676 7.49239 11.7197 8.3604 11.6361 9.38457C11.5562 10.4523 12.4206 11.2949 13.5755 11.2441C13.5864 11.2441 13.5973 11.2441 13.6155 11.2441C15.1154 11.2005 15.7074 10.1291 17.004 10.1073C18.3114 10.1 18.8852 11.1642 20.4142 11.1823C20.4142 11.1823 20.4433 11.1823 20.4615 11.1823C21.6491 11.2077 22.5643 10.3325 22.5098 9.25019C22.4626 8.21512 21.4893 7.35802 20.3598 7.31807C20.3489 7.31807 20.3271 7.31807 20.3162 7.31807" fill="#93D500"></path>
  <path d="M13.5175 12.991C12.032 13.0418 11.451 14.1641 10.2234 14.2113C9.04306 14.2585 8.59998 13.2089 7.32158 13.3033C7.29979 13.3033 7.27437 13.3106 7.25258 13.3106C6.31194 13.3905 5.5202 14.3384 5.46209 15.4207C5.41851 16.532 6.13761 17.4182 7.09278 17.4109C7.11457 17.4109 7.13999 17.4036 7.16178 17.4036C8.45834 17.3891 8.98132 16.2705 10.1726 16.2415C11.4074 16.2197 11.9449 17.3601 13.4521 17.3492C14.6578 17.3492 15.653 16.3431 15.6602 15.1192C15.6675 13.9135 14.7087 12.9656 13.5211 12.991" fill="#93D500"></path>
  <path d="M20.4579 25.3682C18.9252 25.3864 18.3514 26.4505 17.044 26.4469C15.7401 26.4251 15.1518 25.3537 13.6518 25.3101C13.6228 25.3101 13.5937 25.3028 13.5719 25.3101C12.417 25.2593 11.5526 26.1018 11.6325 27.1696C11.7161 28.1938 12.664 29.0618 13.7681 29.138C13.7935 29.138 13.8189 29.138 13.8443 29.138C15.2753 29.2071 15.7873 28.2737 17.0621 28.2991C18.3405 28.3064 18.8853 29.2615 20.3562 29.2325C21.4857 29.1925 22.459 28.3354 22.5062 27.3003C22.5607 26.2181 21.6418 25.3428 20.4542 25.3682" fill="#93D500"></path>
  <path d="M7.09639 19.1433C5.88699 19.1251 5.48023 20.1711 4.54685 20.1275C3.68974 20.0948 3.31203 19.0815 2.45493 19.0488C2.4404 19.0488 2.42587 19.0488 2.41134 19.0488C1.82662 19.0271 1.43439 19.8043 1.4925 20.7631C1.57603 21.711 2.08085 22.5753 2.65468 22.6879C2.67284 22.6988 2.68373 22.6952 2.69463 22.6916C3.53721 22.8332 3.79507 21.9143 4.64491 22.0051C5.56739 22.0778 6.06495 23.1383 7.25618 23.2436C8.24767 23.3162 9.04304 22.4519 8.99946 21.2969C8.9704 20.1239 8.1024 19.1578 7.09639 19.1433Z" fill="#FF5100"></path>
  <path d="M8.87599 4.11844C7.88451 4.42715 7.27073 5.14988 6.49352 5.43679C5.77806 5.74913 5.78532 5.34963 5.09891 5.78182C5.09891 5.78182 5.08075 5.79271 5.06622 5.80361C4.61588 6.15226 3.99847 6.86773 3.65345 7.42703C3.31932 8.05533 3.43917 8.35314 3.94399 8.08075C3.95852 8.06986 3.97668 8.05896 3.98031 8.06259C4.73573 7.72484 5.29503 6.89678 6.04318 6.6135C6.84944 6.3629 7.03466 6.99484 8.12058 6.74788C9.03216 6.57355 9.92196 5.77092 10.0927 4.98282C10.2597 4.26735 9.70405 3.89327 8.87236 4.11481" fill="#FF5100"></path>
  <path d="M8.12419 29.8027C7.03464 29.5557 6.85305 30.1876 6.04679 29.937C5.29863 29.6574 4.73934 28.8293 3.98392 28.4879C3.98029 28.4879 3.96213 28.4807 3.9476 28.4698C3.44278 28.1974 3.32293 28.4952 3.65705 29.1235C4.00208 29.6828 4.61949 30.3983 5.06983 30.7469C5.08436 30.7578 5.09888 30.7687 5.10252 30.7687C5.78893 31.2009 5.78167 30.8014 6.49713 31.1137C7.27434 31.4007 7.88812 32.1198 8.8796 32.4321C9.71129 32.6536 10.267 32.2796 10.0999 31.5641C9.9292 30.7796 9.03577 29.9734 8.12782 29.799" fill="#FF5100"></path>
  <path d="M2.91254 8.28461V8.28076L2.91639 8.27692L2.91254 8.28461Z" fill="#1AAEDC"></path>
  <path d="M0.61361 13.3215C0.860574 12.4462 1.16928 11.5964 1.53972 10.7792C1.53972 10.7792 1.54335 10.7792 1.54699 10.7756C1.78305 10.4051 1.64868 10.9608 2.00096 10.6884C2.45131 10.416 2.90165 9.55892 3.56264 9.24295C4.16552 9.00325 4.52507 9.5335 4.33622 10.4306C4.17279 11.3603 3.49001 12.261 2.85444 12.4099C2.14624 12.6133 2.0845 11.8542 1.61962 12.0685C1.24918 12.2937 0.93321 13.1544 0.668087 13.3796C0.660824 13.3977 0.657192 13.3977 0.657192 13.3941C0.599083 13.474 0.584556 13.4486 0.61361 13.3251V13.3215Z" fill="#93D500"></path>
  <path d="M0.188688 21.3405C0.130579 20.9955 0.0833657 20.6505 0.0434157 20.3018V20.2946C-0.0255888 19.5137 -0.0183251 18.8927 0.108788 18.9072C0.319434 18.9363 0.577292 19.7026 0.639033 20.6033C0.729829 21.4858 0.609979 22.0923 0.406597 21.9507C0.344856 21.8781 0.261325 21.6529 0.188688 21.3405Z" fill="#FF5100"></path>
  <path d="M1.53972 25.775C1.16928 24.9578 0.860574 24.108 0.61361 23.2327C0.584556 23.1056 0.599083 23.0838 0.657192 23.1601C0.657192 23.1601 0.660824 23.1601 0.668087 23.1746C0.93321 23.3998 1.24918 24.2605 1.61962 24.4857C2.08086 24.7 2.14624 23.9446 2.85444 24.1443C3.49001 24.2896 4.17279 25.1903 4.33622 26.12C4.52507 27.0207 4.16552 27.5473 3.56264 27.3076C2.90165 26.9953 2.45131 26.1382 2.00096 25.8622C1.64868 25.5898 1.78305 26.1455 1.54699 25.775C1.54699 25.775 1.54335 25.775 1.53972 25.7714" fill="#93D500"></path>
  <path d="M2.91255 28.2737C2.68011 27.9214 2.4622 27.5619 2.25519 27.1914C2.44767 27.5255 2.69464 27.9287 2.90891 28.2701L2.91255 28.2737Z" fill="#1AAEDC"></path>
  <path d="M20.0584 2.08102C19.0632 2.0447 18.2533 1.60162 18.257 1.14038C18.2424 0.755411 18.9724 0.515711 19.8586 0.559293C20.7484 0.635561 21.5547 0.966056 21.6564 1.34013C21.7689 1.79774 21.0571 2.1464 20.0584 2.08102Z" fill="#93D500"></path>
  <path d="M14.331 2.23718C13.3867 2.35339 12.7403 2.05559 12.9073 1.60887C13.0707 1.24206 13.8952 0.867982 14.745 0.733605C15.613 0.628283 16.2813 0.817137 16.2159 1.19848C16.1687 1.65609 15.3188 2.14275 14.331 2.23718Z" fill="#FF5100"></path>
  <path d="M9.23917 3.26861C8.49101 3.52647 8.14599 3.39209 8.46559 2.99622C8.78519 2.68388 9.54787 2.22264 10.2125 1.9212C10.9243 1.64519 11.3275 1.67424 11.1096 2.02289C10.8953 2.44782 10.0418 3.02891 9.23917 3.26861Z" fill="#93D500"></path>
  <path d="M32.007 34.0156V0" stroke="#FF5100" stroke-width="0.53"></path>
  <path d="M35.0904 0.86438H38.0976V21.4677H35.0904V0.86438Z" fill="#FF5100"></path>
  <path d="M43.1167 0.86438H56.3365C58.5556 0.86438 61.3848 0.951543 63.0481 3.05436C63.9234 4.19112 64.0687 5.38962 64.0687 6.23583C64.0687 8.24786 63.1353 9.4173 62.2019 9.99839C61.9985 10.1146 61.2395 10.4633 61.1814 10.4633C62.0857 10.7538 65.0928 11.778 65.0928 15.7149C65.0928 17.3201 64.4791 18.8673 63.2551 19.8878C61.3884 21.464 58.5556 21.464 56.3402 21.464H43.1204V0.86438H43.1167ZM46.0331 3.25775V9.59163H56.8014C57.7057 9.59163 58.7553 9.59163 59.5725 9.12313C60.593 8.56746 61.0325 7.4307 61.0325 6.43921C61.0325 5.21529 60.4187 4.39813 59.6887 3.90058C58.6682 3.25775 57.3825 3.25775 56.3038 3.25775H46.0331ZM46.0331 11.9523V19.0707H57.2082C58.4321 19.0707 59.834 19.0126 60.9417 18.0792C62.0203 17.1458 62.0494 15.9182 62.0494 15.4824C62.0494 13.761 61.0579 13.0019 60.8255 12.7985C59.7759 11.9814 58.403 11.9523 57.2082 11.9523H46.0331Z" fill="#FF5100"></path>
  <path d="M69.2622 0.86438H72.2693V21.4677H69.2622V0.86438Z" fill="#FF5100"></path>
  <path d="M84.2325 0.835327H87.3268L97.8918 21.464H94.536L92.0264 16.3868H79.3622L76.8527 21.464H73.584L84.2325 0.835327ZM86.4225 5.32788C86.2772 4.97923 86.1029 4.62694 85.954 4.27829C85.8668 4.0168 85.7797 3.75167 85.7216 3.49018C85.6344 3.75167 85.5472 4.04585 85.431 4.3364C85.2857 4.7141 85.1114 5.06639 84.9334 5.4441L80.5862 13.9934H90.7698L86.4225 5.32788Z" fill="#FF5100"></path>
  <path d="M35.0795 24.3622H35.5117V25.005H35.0795V24.3622ZM35.0795 25.528H35.5117V28.5642H35.0795V25.528Z" fill="#DADADA"></path>
  <path d="M39.0382 26.6103C39.0382 26.0074 38.6714 25.8004 38.123 25.8004C37.2768 25.8004 36.8918 26.2326 36.8918 26.9226V28.5678H36.4597V25.5316H36.8918V26.1272H36.9027C37.0299 25.8076 37.4875 25.4372 38.1593 25.4372C39.169 25.4372 39.4741 25.9638 39.4741 26.6865V28.5678H39.0419V26.6139L39.0382 26.6103Z" fill="#DADADA"></path>
  <path d="M40.7162 24.5728H41.1483V25.5316H42.0054V25.8585H41.1483V27.8669C41.1483 28.1284 41.2282 28.2518 41.5805 28.2518C41.7912 28.2518 41.9255 28.2337 42.0054 28.2155V28.5787C41.842 28.6005 41.6713 28.615 41.5333 28.615C40.8614 28.615 40.7162 28.3535 40.7162 27.8632V25.8621H40.0552V25.5352H40.7162V24.5764V24.5728Z" fill="#DADADA"></path>
  <path d="M45.9532 27.5981C45.7789 28.1356 45.3213 28.6622 44.3189 28.6622C43.0768 28.6622 42.6664 27.7942 42.6664 27.0497C42.6664 26.2035 43.1858 25.4372 44.3189 25.4372C45.0997 25.4372 46.0295 25.775 46.0295 27.155H43.0986C43.0986 27.787 43.549 28.2991 44.3189 28.2991C45.0416 28.2991 45.3685 28.0594 45.521 27.5981H45.9532ZM45.5973 26.8282C45.4738 26.08 44.9254 25.8004 44.348 25.8004C43.7705 25.8004 43.1967 26.0873 43.0986 26.8282H45.5973Z" fill="#DADADA"></path>
  <path d="M46.843 25.5316H47.2752V26.2253H47.2861C47.4423 25.8621 47.7292 25.4372 48.4483 25.4372C48.5718 25.4372 48.6408 25.4481 48.7061 25.459V25.9021C48.5718 25.8803 48.4447 25.8657 48.3103 25.8657C47.8418 25.8657 47.2752 26.1527 47.2752 27.017V28.5642H46.843V25.528V25.5316Z" fill="#DADADA"></path>
  <path d="M51.8767 26.6103C51.8767 26.0074 51.5099 25.8004 50.9615 25.8004C50.1153 25.8004 49.7303 26.2326 49.7303 26.9226V28.5678H49.2981V25.5316H49.7303V26.1272H49.7412C49.8683 25.8076 50.3259 25.4372 50.9978 25.4372C52.0075 25.4372 52.3125 25.9638 52.3125 26.6865V28.5678H51.8803V26.6139L51.8767 26.6103Z" fill="#DADADA"></path>
  <path d="M53.2423 26.465C53.3076 25.8294 53.6527 25.4372 54.6914 25.4372C55.7301 25.4372 56.0824 25.7532 56.0824 26.3379V27.925C56.0824 28.1756 56.1514 28.2627 56.3221 28.2627C56.3983 28.2627 56.4746 28.2555 56.5509 28.2519V28.5424C56.4637 28.5606 56.3293 28.5896 56.1877 28.5896C55.7482 28.5896 55.7264 28.2918 55.7192 28.0521H55.7083C55.5739 28.2518 55.2834 28.6586 54.2882 28.6586C53.7689 28.6586 53.1079 28.4298 53.1079 27.747C53.1079 26.9226 53.9541 26.8318 54.6187 26.7955C55.563 26.7446 55.6829 26.6902 55.6829 26.3924C55.6829 25.9529 55.3923 25.7967 54.6768 25.7967C53.9614 25.7967 53.6672 25.9783 53.6381 26.4614H53.2423V26.465ZM55.6829 26.9335C55.4904 27.057 55.1998 27.0788 54.3354 27.1623C53.8343 27.2095 53.5401 27.3621 53.5401 27.7216C53.5401 28.1937 53.9505 28.3354 54.4154 28.3354C55.0001 28.3354 55.6829 28.0194 55.6829 27.3947V26.9335Z" fill="#DADADA"></path>
  <path d="M57.4116 24.5728H57.8438V25.5316H58.7009V25.8585H57.8438V27.8669C57.8438 28.1284 57.9237 28.2518 58.276 28.2518C58.4866 28.2518 58.621 28.2337 58.7009 28.2155V28.5787C58.5375 28.6005 58.3668 28.615 58.2287 28.615C57.5569 28.615 57.4116 28.3535 57.4116 27.8632V25.8621H56.7506V25.5352H57.4116V24.5764V24.5728Z" fill="#DADADA"></path>
  <path d="M59.4563 24.3622H59.8885V25.005H59.4563V24.3622ZM59.4563 25.528H59.8885V28.5642H59.4563V25.528Z" fill="#DADADA"></path>
  <path d="M62.4489 25.4372C63.6184 25.4372 64.1704 26.2035 64.1704 27.0497C64.1704 27.8959 63.6147 28.6622 62.4489 28.6622C61.2831 28.6622 60.7274 27.8959 60.7274 27.0497C60.7274 26.2035 61.2831 25.4372 62.4489 25.4372ZM62.4489 28.2991C63.2661 28.2991 63.7382 27.7797 63.7382 27.0497C63.7382 26.3197 63.2661 25.8004 62.4489 25.8004C61.6318 25.8004 61.1596 26.3197 61.1596 27.0497C61.1596 27.7797 61.6318 28.2991 62.4489 28.2991Z" fill="#DADADA"></path>
  <path d="M67.6025 26.6103C67.6025 26.0074 67.2357 25.8004 66.6873 25.8004C65.841 25.8004 65.4561 26.2326 65.4561 26.9226V28.5678H65.0239V25.5316H65.4561V26.1272H65.467C65.5941 25.8076 66.0517 25.4372 66.7236 25.4372C67.7332 25.4372 68.0383 25.9638 68.0383 26.6865V28.5678H67.6061V26.6139L67.6025 26.6103Z" fill="#DADADA"></path>
  <path d="M68.968 26.465C69.0334 25.8294 69.3784 25.4372 70.4171 25.4372C71.4558 25.4372 71.8081 25.7532 71.8081 26.3379V27.925C71.8081 28.1756 71.8771 28.2627 72.0478 28.2627C72.1241 28.2627 72.2003 28.2555 72.2766 28.2519V28.5424C72.1894 28.5606 72.0551 28.5896 71.9134 28.5896C71.474 28.5896 71.4522 28.2918 71.4449 28.0521H71.434C71.2997 28.2518 71.0091 28.6586 70.014 28.6586C69.4946 28.6586 68.8336 28.4298 68.8336 27.747C68.8336 26.9226 69.6799 26.8318 70.3445 26.7955C71.2888 26.7446 71.405 26.6902 71.405 26.3924C71.405 25.9529 71.1144 25.7967 70.4026 25.7967C69.6908 25.7967 69.393 25.9783 69.3639 26.4614H68.968V26.465ZM71.4086 26.9335C71.2161 27.057 70.9256 27.0788 70.0612 27.1623C69.56 27.2095 69.2658 27.3621 69.2658 27.7216C69.2658 28.1937 69.6762 28.3354 70.1411 28.3354C70.7258 28.3354 71.4086 28.0194 71.4086 27.3947V26.9335Z" fill="#DADADA"></path>
  <path d="M72.8359 24.3622H73.2681V28.5642H72.8359V24.3622Z" fill="#DADADA"></path>
  <path d="M76.1263 24.3622H76.5585V26.1381H76.5694C76.7692 25.7532 77.2304 25.4372 77.8079 25.4372C78.941 25.4372 79.4603 26.2035 79.4603 27.0497C79.4603 27.7906 79.05 28.6622 77.8079 28.6622C77.0706 28.6622 76.6856 28.2192 76.5694 27.9613H76.5585V28.5678H76.1263V24.3658V24.3622ZM77.8079 28.2954C78.6904 28.2954 79.0282 27.6526 79.0282 27.0461C79.0282 26.2761 78.4907 25.7967 77.8079 25.7967C76.9253 25.7967 76.5367 26.4214 76.5367 27.0461C76.5367 27.8415 77.0924 28.2954 77.8079 28.2954Z" fill="#DADADA"></path>
  <path d="M83.4917 27.5981C83.3173 28.1356 82.8597 28.6622 81.8573 28.6622C80.6153 28.6622 80.2049 27.7942 80.2049 27.0497C80.2049 26.2035 80.7242 25.4372 81.8573 25.4372C82.6382 25.4372 83.5679 25.775 83.5679 27.155H80.6371C80.6371 27.787 81.0874 28.2991 81.8573 28.2991C82.5801 28.2991 82.9069 28.0594 83.0595 27.5981H83.4917ZM83.1357 26.8282C83.0123 26.08 82.4639 25.8004 81.8864 25.8004C81.3089 25.8004 80.7351 26.0873 80.6371 26.8282H83.1357Z" fill="#DADADA"></path>
  <path d="M84.6756 24.5728H85.1078V25.5316H85.9649V25.8585H85.1078V27.8669C85.1078 28.1284 85.1877 28.2518 85.54 28.2518C85.7506 28.2518 85.885 28.2337 85.9649 28.2155V28.5787C85.8015 28.6005 85.6308 28.615 85.4928 28.615C84.8209 28.615 84.6756 28.3535 84.6756 27.8632V25.8621H84.0146V25.5352H84.6756V24.5764V24.5728Z" fill="#DADADA"></path>
  <path d="M87.0218 24.5728H87.454V25.5316H88.3111V25.8585H87.454V27.8669C87.454 28.1284 87.5339 28.2518 87.8861 28.2518C88.0968 28.2518 88.2312 28.2337 88.3111 28.2155V28.5787C88.1476 28.6005 87.9769 28.615 87.8389 28.615C87.167 28.615 87.0218 28.3535 87.0218 27.8632V25.8621H86.3608V25.5352H87.0218V24.5764V24.5728Z" fill="#DADADA"></path>
  <path d="M89.0629 24.3622H89.4951V25.005H89.0629V24.3622ZM89.0629 25.528H89.4951V28.5642H89.0629V25.528Z" fill="#DADADA"></path>
  <path d="M93.0215 26.6103C93.0215 26.0074 92.6547 25.8004 92.1063 25.8004C91.2601 25.8004 90.8751 26.2326 90.8751 26.9226V28.5678H90.4429V25.5316H90.8751V26.1272H90.886C91.0131 25.8076 91.4708 25.4372 92.1426 25.4372C93.1523 25.4372 93.4573 25.9638 93.4573 26.6865V28.5678H93.0252V26.6139L93.0215 26.6103Z" fill="#DADADA"></path>
  <path d="M97.2163 25.5316H97.6485V28.4516C97.6485 29.5738 96.7441 29.8535 95.9452 29.8535C94.5614 29.8535 94.4271 29.1925 94.3907 28.8656H94.7866C94.852 29.1925 94.9391 29.5266 95.9597 29.5266C96.755 29.5266 97.2163 29.1525 97.2163 28.4225V27.8778H97.2054C97.042 28.1865 96.6461 28.5678 95.8616 28.5678C95.0772 28.5678 94.2491 28.172 94.2491 26.9843C94.2491 26.1781 94.7648 25.4372 95.9088 25.4372C96.4972 25.4372 97.002 25.6587 97.2054 26.12H97.2163V25.5316ZM95.9306 25.8004C95.1716 25.8004 94.6813 26.2398 94.6813 26.9843C94.6813 27.8705 95.2369 28.2046 95.9669 28.2046C96.6969 28.2046 97.2272 27.7543 97.2272 26.9843C97.2272 26.3488 96.7877 25.8004 95.9306 25.8004Z" fill="#DADADA"></path>
  <path d="M35.0796 29.8135H35.5118V30.4564H35.0796V29.8135ZM35.0796 30.9794H35.5118V34.0155H35.0796V30.9794Z" fill="#DADADA"></path>
  <path d="M39.0382 32.0616C39.0382 31.4587 38.6714 31.2517 38.123 31.2517C37.2768 31.2517 36.8918 31.6839 36.8918 32.374V34.0192H36.4597V30.983H36.8918V31.5786H36.9027C37.0299 31.259 37.4875 30.8885 38.1593 30.8885C39.169 30.8885 39.4741 31.4152 39.4741 32.1379V34.0192H39.0419V32.0653L39.0382 32.0616Z" fill="#DADADA"></path>
  <path d="M40.7162 30.0242H41.1483V30.983H42.0054V31.3098H41.1483V33.3182C41.1483 33.5797 41.2282 33.7032 41.5805 33.7032C41.7912 33.7032 41.9255 33.685 42.0054 33.6669V34.0301C41.842 34.0519 41.6713 34.0664 41.5333 34.0664C40.8614 34.0664 40.7162 33.8049 40.7162 33.3146V31.3135H40.0552V30.9866H40.7162V30.0278V30.0242Z" fill="#DADADA"></path>
  <path d="M45.9532 33.0459C45.7789 33.5834 45.3213 34.11 44.3189 34.11C43.0768 34.11 42.6664 33.242 42.6664 32.4975C42.6664 31.6513 43.1858 30.8849 44.3189 30.8849C45.0997 30.8849 46.0295 31.2227 46.0295 32.6028H43.0986C43.0986 33.2347 43.549 33.7468 44.3189 33.7468C45.0416 33.7468 45.3685 33.5071 45.521 33.0459H45.9532ZM45.5973 32.2759C45.4738 31.5278 44.9254 31.2481 44.348 31.2481C43.7705 31.2481 43.1967 31.535 43.0986 32.2759H45.5973Z" fill="#DADADA"></path>
  <path d="M49.6541 30.9794H50.0862V33.8994C50.0862 35.0216 49.1819 35.3012 48.3829 35.3012C46.9992 35.3012 46.8648 34.6402 46.8285 34.3134H47.2244C47.2897 34.6402 47.3769 34.9744 48.3974 34.9744C49.1928 34.9744 49.6541 34.6003 49.6541 33.8703V33.3255H49.6432C49.4797 33.6342 49.0839 34.0156 48.2994 34.0156C47.5149 34.0156 46.6869 33.6197 46.6869 32.4321C46.6869 31.6258 47.1989 30.8849 48.3466 30.8849C48.9349 30.8849 49.4398 31.1065 49.6432 31.5677H49.6541V30.9794ZM48.3684 31.2481C47.6093 31.2481 47.119 31.6876 47.119 32.4321C47.119 33.3183 47.6747 33.6524 48.4047 33.6524C49.1347 33.6524 49.6649 33.202 49.6649 32.4321C49.6649 31.7965 49.2255 31.2481 48.3684 31.2481Z" fill="#DADADA"></path>
  <path d="M51.0305 30.9794H51.4627V31.6731H51.4736C51.6297 31.3099 51.9166 30.8849 52.6357 30.8849C52.7592 30.8849 52.8282 30.8958 52.8936 30.9067V31.3498C52.7592 31.328 52.6321 31.3135 52.4977 31.3135C52.0292 31.3135 51.4627 31.6004 51.4627 32.4648V34.0119H51.0305V30.9757V30.9794Z" fill="#DADADA"></path>
  <path d="M53.4674 29.8135H53.8996V30.4564H53.4674V29.8135ZM53.4674 30.9794H53.8996V34.0155H53.4674V30.9794Z" fill="#DADADA"></path>
  <path d="M55.1381 30.0242H55.5703V30.983H56.4274V31.3098H55.5703V33.3182C55.5703 33.5797 55.6502 33.7032 56.0025 33.7032C56.2131 33.7032 56.3475 33.685 56.4274 33.6669V34.0301C56.2639 34.0519 56.0933 34.0664 55.9552 34.0664C55.2834 34.0664 55.1381 33.8049 55.1381 33.3146V31.3135H54.4771V30.9866H55.1381V30.0278V30.0242Z" fill="#DADADA"></path>
  <path d="M59.6706 30.9794H60.1391L58.4939 34.5821C58.2723 35.0615 58.0835 35.1959 57.6077 35.1959C57.4733 35.1959 57.3208 35.1959 57.1937 35.185V34.8218C57.2881 34.8291 57.3862 34.8327 57.5024 34.8327C57.8111 34.8327 57.9636 34.7637 58.1053 34.4586L58.305 34.0374L56.8269 30.9794H57.2954L58.5338 33.5071L59.6779 30.9794H59.6706Z" fill="#DADADA"></path>
  <path d="M62.6196 31.9128C62.685 31.2772 63.03 30.8849 64.0687 30.8849C65.1074 30.8849 65.4597 31.2009 65.4597 31.7856V33.3727C65.4597 33.6233 65.5287 33.7105 65.6994 33.7105C65.7757 33.7105 65.8519 33.7032 65.9282 33.6996V33.9901C65.841 34.0083 65.7067 34.0374 65.565 34.0374C65.1256 34.0374 65.1038 33.7396 65.0965 33.4999H65.0856C64.9512 33.6996 64.6607 34.1064 63.6656 34.1064C63.1462 34.1064 62.4852 33.8776 62.4852 33.1948C62.4852 32.3704 63.3315 32.2796 63.9961 32.2432C64.9404 32.1924 65.0602 32.1379 65.0602 31.8401C65.0602 31.4007 64.7697 31.2445 64.0542 31.2445C63.3387 31.2445 63.0445 31.4261 63.0155 31.9091H62.6196V31.9128ZM65.0602 32.3813C64.8677 32.5047 64.5772 32.5265 63.7128 32.6101C63.2116 32.6573 62.9174 32.8098 62.9174 33.1694C62.9174 33.6415 63.3278 33.7831 63.7927 33.7831C64.3774 33.7831 65.0602 33.4672 65.0602 32.8425V32.3813Z" fill="#DADADA"></path>
  <path d="M68.7574 31.88C68.6448 31.3897 68.3434 31.2481 67.7114 31.2481C67.2574 31.2481 66.8362 31.3462 66.8362 31.7675C66.8362 32.0834 67.0395 32.1452 67.962 32.2686C68.8918 32.3921 69.2767 32.5556 69.2767 33.1439C69.2767 33.7323 68.7864 34.1063 67.8349 34.1063C66.8834 34.1063 66.2986 33.7904 66.2986 33.0604H66.6945C66.7708 33.5688 67.0577 33.7432 67.8313 33.7432C68.4342 33.7432 68.8409 33.6197 68.8409 33.1657C68.8409 32.8606 68.6266 32.7262 67.6787 32.6355C66.7345 32.541 66.4003 32.3195 66.4003 31.782C66.4003 31.2445 66.8253 30.8813 67.7078 30.8813C68.6956 30.8813 69.0988 31.2372 69.1496 31.8728H68.7537L68.7574 31.88Z" fill="#DADADA"></path>
  <path d="M72.2948 31.88C72.1822 31.3897 71.8807 31.2481 71.2488 31.2481C70.7948 31.2481 70.3735 31.3462 70.3735 31.7675C70.3735 32.0834 70.5769 32.1452 71.4994 32.2686C72.4291 32.3921 72.8141 32.5556 72.8141 33.1439C72.8141 33.7323 72.3238 34.1063 71.3723 34.1063C70.4208 34.1063 69.836 33.7904 69.836 33.0604H70.2319C70.3082 33.5688 70.5951 33.7432 71.3687 33.7432C71.9715 33.7432 72.3783 33.6197 72.3783 33.1657C72.3783 32.8606 72.164 32.7262 71.2161 32.6355C70.2718 32.541 69.9377 32.3195 69.9377 31.782C69.9377 31.2445 70.3626 30.8813 71.2452 30.8813C72.233 30.8813 72.6362 31.2372 72.687 31.8728H72.2911L72.2948 31.88Z" fill="#DADADA"></path>
  <path d="M75.1893 30.8885C76.3551 30.8885 76.9108 31.6549 76.9108 32.5011C76.9108 33.3473 76.3551 34.1136 75.1893 34.1136C74.0235 34.1136 73.4678 33.3473 73.4678 32.5011C73.4678 31.6549 74.0235 30.8885 75.1893 30.8885ZM75.1893 33.7504C76.0065 33.7504 76.4786 33.2311 76.4786 32.5011C76.4786 31.7711 76.0065 31.2517 75.1893 31.2517C74.3722 31.2517 73.9 31.7711 73.9 32.5011C73.9 33.2311 74.3722 33.7504 75.1893 33.7504Z" fill="#DADADA"></path>
  <path d="M80.8513 32.9297C80.7714 33.3255 80.4191 34.11 79.315 34.11C78.211 34.11 77.6045 33.449 77.6045 32.4975C77.6045 31.5459 78.1638 30.8849 79.315 30.8849C80.3537 30.8849 80.7569 31.5314 80.8259 31.9709H80.3937C80.2593 31.4515 79.8489 31.2481 79.315 31.2481C78.447 31.2481 78.0366 31.7965 78.0366 32.4975C78.0366 33.2493 78.4906 33.7468 79.315 33.7468C79.9506 33.7468 80.3065 33.4018 80.4191 32.9297H80.8513Z" fill="#DADADA"></path>
  <path d="M81.6067 29.8135H82.0389V30.4564H81.6067V29.8135ZM81.6067 30.9794H82.0389V34.0155H81.6067V30.9794Z" fill="#DADADA"></path>
  <path d="M82.9614 31.9128C83.0268 31.2772 83.3718 30.8849 84.4105 30.8849C85.4492 30.8849 85.8015 31.2009 85.8015 31.7856V33.3727C85.8015 33.6233 85.8705 33.7105 86.0412 33.7105C86.1175 33.7105 86.1937 33.7032 86.27 33.6996V33.9901C86.1828 34.0083 86.0484 34.0374 85.9068 34.0374C85.4674 34.0374 85.4456 33.7396 85.4383 33.4999H85.4274C85.293 33.6996 85.0025 34.1064 84.0074 34.1064C83.488 34.1064 82.827 33.8776 82.827 33.1948C82.827 32.3704 83.6732 32.2796 84.3379 32.2432C85.2821 32.1924 85.3984 32.1379 85.3984 31.8401C85.3984 31.4007 85.1078 31.2445 84.396 31.2445C83.6841 31.2445 83.3863 31.4261 83.3573 31.9091H82.9614V31.9128ZM85.402 32.3813C85.2095 32.5047 84.919 32.5265 84.0546 32.6101C83.5534 32.6573 83.2592 32.8098 83.2592 33.1694C83.2592 33.6415 83.6696 33.7831 84.1345 33.7831C84.7192 33.7831 85.402 33.4672 85.402 32.8425V32.3813Z" fill="#DADADA"></path>
  <path d="M87.1344 30.0242H87.5665V30.983H88.4237V31.3098H87.5665V33.3182C87.5665 33.5797 87.6464 33.7032 87.9987 33.7032C88.2094 33.7032 88.3438 33.685 88.4237 33.6669V34.0301C88.2602 34.0519 88.0895 34.0664 87.9515 34.0664C87.2796 34.0664 87.1344 33.8049 87.1344 33.3146V31.3135H86.4734V30.9866H87.1344V30.0278V30.0242Z" fill="#DADADA"></path>
  <path d="M89.1754 29.8135H89.6076V30.4564H89.1754V29.8135ZM89.1754 30.9794H89.6076V34.0155H89.1754V30.9794Z" fill="#DADADA"></path>
  <path d="M92.1681 30.8885C93.3339 30.8885 93.8895 31.6549 93.8895 32.5011C93.8895 33.3473 93.3339 34.1136 92.1681 34.1136C91.0022 34.1136 90.4466 33.3473 90.4466 32.5011C90.4466 31.6549 91.0022 30.8885 92.1681 30.8885ZM92.1681 33.7504C92.9852 33.7504 93.4574 33.2311 93.4574 32.5011C93.4574 31.7711 92.9852 31.2517 92.1681 31.2517C91.3509 31.2517 90.8788 31.7711 90.8788 32.5011C90.8788 33.2311 91.3509 33.7504 92.1681 33.7504Z" fill="#DADADA"></path>
  <path d="M97.3216 32.0616C97.3216 31.4587 96.9548 31.2517 96.4064 31.2517C95.5602 31.2517 95.1752 31.6839 95.1752 32.374V34.0192H94.743V30.983H95.1752V31.5786H95.1861C95.3132 31.259 95.7708 30.8885 96.4427 30.8885C97.4523 30.8885 97.7574 31.4152 97.7574 32.1379V34.0192H97.3252V32.0653L97.3216 32.0616Z" fill="#DADADA"></path>
</svg>
