<?xml version="1.0" encoding="UTF-8"?>
<svg xmlns="http://www.w3.org/2000/svg" xmlns:v="https://vecta.io/nano" width="132" height="35" fill="none">
  <path d="M43.276 15.096c-.6 0-1.132-.112-1.596-.336-.456-.232-.812-.552-1.068-.96-.256-.416-.384-.896-.384-1.44v-.42c0-.136.068-.204.204-.204h1.284c.136 0 .204.068.204.204v.42c0 .384.124.696.372.936.248.232.576.348.984.348.416 0 .752-.116 1.008-.348.256-.24.384-.552.384-.936V6.804c0-.136.068-.204.204-.204h1.272c.136 0 .204.068.204.204v5.556c0 .544-.128 1.024-.384 1.44a2.63 2.63 0 0 1-1.08.96c-.464.224-1 .336-1.608.336zm7.162 0c-.68 0-1.26-.176-1.74-.528s-.808-.832-.984-1.44a4.27 4.27 0 0 1-.168-1.224c0-.488.06-.912.18-1.272a2.6 2.6 0 0 1 .984-1.392c.48-.336 1.06-.504 1.74-.504.656 0 1.216.168 1.68.504a2.6 2.6 0 0 1 .984 1.38 4.06 4.06 0 0 1 .18 1.26c0 .416-.052.82-.156 1.212-.184.624-.516 1.116-.996 1.476-.472.352-1.04.528-1.704.528zm0-1.452a.97.97 0 0 0 .66-.24c.184-.16.316-.38.396-.66.064-.216.096-.496.096-.84 0-.336-.032-.62-.096-.852-.08-.272-.212-.484-.396-.636s-.412-.228-.684-.228a1.02 1.02 0 0 0-.672.228c-.184.152-.316.364-.396.636-.064.232-.096.516-.096.852 0 .328.032.608.096.84.08.28.212.5.396.66a1.05 1.05 0 0 0 .696.24zm7.712-4.608c0-.136.068-.204.204-.204h1.284c.136 0 .204.068.204.204v5.412c0 1.048-.3 1.796-.9 2.244s-1.372.672-2.316.672a7.7 7.7 0 0 1-.9-.06c-.12-.008-.18-.08-.18-.216l.048-1.116c0-.064.02-.116.06-.156.048-.032.104-.04.168-.024a5.67 5.67 0 0 0 .732.06c.512 0 .904-.112 1.176-.336.28-.224.42-.584.42-1.08 0-.024-.008-.036-.024-.036-.016-.008-.036 0-.06.024-.296.32-.736.48-1.32.48-.52 0-1-.124-1.44-.372-.432-.256-.74-.664-.924-1.224-.12-.368-.18-.844-.18-1.428 0-.624.072-1.132.216-1.524.168-.488.452-.88.852-1.176s.864-.444 1.392-.444c.6 0 1.068.18 1.404.54.024.024.044.032.06.024s.024-.028.024-.06v-.204zm-.096 3.816c.064-.24.096-.568.096-.984l-.024-.576a1.92 1.92 0 0 0-.084-.384c-.072-.216-.192-.388-.36-.516a.96.96 0 0 0-.624-.204c-.24 0-.444.068-.612.204a1.12 1.12 0 0 0-.372.516c-.112.24-.168.564-.168.972 0 .448.048.768.144.96.072.216.196.392.372.528.184.128.4.192.648.192.256 0 .468-.064.636-.192.168-.136.284-.308.348-.516zm6.596-3.816c0-.136.068-.204.204-.204h1.284c.136 0 .204.068.204.204v5.76c0 .136-.068.204-.204.204h-1.284c-.136 0-.204-.068-.204-.204v-.324c0-.032-.012-.048-.036-.048-.016-.008-.032 0-.048.024-.312.424-.804.636-1.476.636-.608 0-1.108-.184-1.5-.552s-.588-.884-.588-1.548V9.036c0-.136.068-.204.204-.204h1.272c.136 0 .204.068.204.204v3.528c0 .32.084.58.252.78.176.2.416.3.72.3a.96.96 0 0 0 .672-.24c.176-.168.284-.384.324-.648v-3.72zm5.915 4.632c.528-.024.932-.208 1.212-.552.048-.056.1-.084.156-.084.048 0 .092.02.132.06l.684.66c.048.048.072.096.072.144 0 .056-.016.104-.048.144a2.78 2.78 0 0 1-1.02.78 3.23 3.23 0 0 1-1.344.276c-.736 0-1.348-.188-1.836-.564-.48-.376-.804-.892-.972-1.548-.096-.352-.144-.724-.144-1.116 0-.464.044-.856.132-1.176a2.57 2.57 0 0 1 .96-1.428c.488-.36 1.064-.54 1.728-.54.784 0 1.404.232 1.86.696.464.464.764 1.116.9 1.956l.072.876c0 .136-.068.204-.204.204h-3.684c-.048 0-.072.024-.072.072a1.74 1.74 0 0 0 .084.372 1.01 1.01 0 0 0 .468.576c.24.128.528.192.864.192zm-.312-3.48c-.256 0-.472.064-.648.192a.92.92 0 0 0-.348.516l-.072.3c-.008.048.012.072.06.072h2.04c.04 0 .06-.016.06-.048a.87.87 0 0 0-.048-.276 1.08 1.08 0 0 0-.372-.552c-.176-.136-.4-.204-.672-.204zm9.013 4.908c-.64 0-1.196-.16-1.668-.48a2.63 2.63 0 0 1-.996-1.32c-.136-.4-.204-.872-.204-1.416 0-.536.068-1 .204-1.392a2.49 2.49 0 0 1 .996-1.284c.472-.312 1.028-.468 1.668-.468s1.2.16 1.68.48c.488.32.812.724.972 1.212.048.112.08.236.096.372v.024c0 .104-.06.168-.18.192l-1.26.192-.06.012c-.096 0-.152-.048-.168-.144l-.036-.168c-.056-.208-.18-.38-.372-.516s-.42-.204-.684-.204c-.256 0-.472.064-.648.192s-.3.304-.372.528c-.088.24-.132.568-.132.984s.04.744.12.984c.072.24.196.428.372.564a1.08 1.08 0 0 0 .66.204c.248 0 .464-.064.648-.192a1.03 1.03 0 0 0 .396-.54l.012-.06c.008-.032.036-.068.084-.108.048-.048.1-.068.156-.06l1.26.192c.064.016.108.044.132.084a.18.18 0 0 1 .036.144c-.016.128-.036.22-.06.276a2.23 2.23 0 0 1-.984 1.26c-.48.304-1.036.456-1.668.456zm6.399 0c-.68 0-1.26-.176-1.74-.528s-.808-.832-.984-1.44a4.27 4.27 0 0 1-.168-1.224c0-.488.06-.912.18-1.272a2.6 2.6 0 0 1 .984-1.392c.48-.336 1.06-.504 1.74-.504.656 0 1.216.168 1.68.504a2.6 2.6 0 0 1 .984 1.38 4.06 4.06 0 0 1 .18 1.26c0 .416-.052.82-.156 1.212-.184.624-.516 1.116-.996 1.476-.472.352-1.04.528-1.704.528zm0-1.452a.97.97 0 0 0 .66-.24c.184-.16.316-.38.396-.66.064-.216.096-.496.096-.84 0-.336-.032-.62-.096-.852-.08-.272-.212-.484-.396-.636s-.412-.228-.684-.228a1.02 1.02 0 0 0-.672.228c-.184.152-.316.364-.396.636-.064.232-.096.516-.096.852 0 .328.032.608.096.84.08.28.212.5.396.66a1.05 1.05 0 0 0 .696.24zm10.784-4.908c.624 0 1.112.188 1.464.564s.528.904.528 1.584v3.912c0 .136-.068.204-.204.204h-1.284c-.136 0-.204-.068-.204-.204v-3.54c0-.328-.084-.588-.252-.78s-.392-.288-.672-.288-.508.096-.684.288-.264.448-.264.768v3.552c0 .136-.068.204-.204.204H93.4c-.136 0-.204-.068-.204-.204v-3.54c0-.32-.088-.576-.264-.768-.176-.2-.404-.3-.684-.3-.256 0-.472.076-.648.228-.168.152-.268.364-.3.636v3.744c0 .136-.068.204-.204.204h-1.284c-.136 0-.204-.068-.204-.204v-5.76c0-.136.068-.204.204-.204h1.284c.136 0 .204.068.204.204v.384c0 .032.008.052.024.06.024.008.044-.004.06-.036.328-.472.832-.708 1.512-.708.4 0 .748.084 1.044.252.296.16.524.396.684.708.008.032.02.048.036.048.024-.008.044-.024.06-.048.184-.32.424-.56.72-.72s.632-.24 1.008-.24zM43.696 22.748c.256 0 .468.048.636.144.096.048.132.132.108.252l-.228 1.26c-.008.072-.032.116-.072.132-.032.016-.088.016-.168 0-.128-.032-.244-.048-.348-.048-.056 0-.148.008-.276.024-.288.024-.532.132-.732.324-.2.184-.3.432-.3.744v3.216c0 .136-.068.204-.204.204h-1.284c-.136 0-.204-.068-.204-.204v-5.76c0-.136.068-.204.204-.204h1.284c.136 0 .204.068.204.204v.372c0 .032.008.052.024.06s.036 0 .06-.024c.32-.464.752-.696 1.296-.696zm4.345 4.92c.528-.024.932-.208 1.212-.552.048-.056.1-.084.156-.084.048 0 .092.02.132.06l.684.66c.048.048.072.096.072.144 0 .056-.016.104-.048.144a2.78 2.78 0 0 1-1.02.78 3.23 3.23 0 0 1-1.344.276c-.736 0-1.348-.188-1.836-.564-.48-.376-.804-.892-.972-1.548-.096-.352-.144-.724-.144-1.116 0-.464.044-.856.132-1.176a2.57 2.57 0 0 1 .96-1.428c.488-.36 1.064-.54 1.728-.54.784 0 1.404.232 1.86.696.464.464.764 1.116.9 1.956l.072.876c0 .136-.068.204-.204.204h-3.684c-.048 0-.072.024-.072.072a1.74 1.74 0 0 0 .084.372 1.01 1.01 0 0 0 .468.576c.24.128.528.192.864.192zm-.312-3.48c-.256 0-.472.064-.648.192a.92.92 0 0 0-.348.516l-.072.3c-.008.048.012.072.06.072h2.04c.04 0 .06-.016.06-.048a.87.87 0 0 0-.048-.276 1.08 1.08 0 0 0-.372-.552c-.176-.136-.4-.204-.672-.204zm6.358 4.896c-.536 0-1.004-.076-1.404-.228s-.708-.364-.924-.636-.324-.58-.324-.924v-.06c0-.136.068-.204.204-.204h1.212c.136 0 .204.024.204.072v.084c0 .176.096.328.288.456.192.12.436.18.732.18.272 0 .492-.052.66-.156s.252-.24.252-.408c0-.144-.072-.252-.216-.324s-.38-.148-.708-.228l-.876-.276c-.52-.176-.932-.392-1.236-.648s-.456-.624-.456-1.104c0-.592.232-1.06.696-1.404.464-.352 1.072-.528 1.824-.528.512 0 .96.084 1.344.252.392.16.692.388.9.684.216.296.324.632.324 1.008 0 .04-.02.076-.06.108-.032.024-.08.036-.144.036h-1.176c-.136 0-.204-.024-.204-.072v-.072c0-.176-.088-.324-.264-.444s-.412-.18-.708-.18c-.264 0-.484.048-.66.144-.168.096-.252.228-.252.396 0 .16.08.28.24.36.168.08.44.164.816.252a5.91 5.91 0 0 1 .672.18c.576.168 1.028.384 1.356.648s.492.648.492 1.152c0 .592-.236 1.056-.708 1.392-.472.328-1.104.492-1.896.492zm9.095-4.584c.136.384.204.864.204 1.44 0 .592-.076 1.088-.228 1.488-.176.512-.468.92-.876 1.224-.4.304-.872.456-1.416.456-.592 0-1.048-.196-1.368-.588-.016-.024-.036-.032-.06-.024-.016.008-.024.028-.024.06v2.472c0 .136-.068.204-.204.204h-1.284c-.136 0-.204-.068-.204-.204v-7.992c0-.136.068-.204.204-.204h1.284c.136 0 .204.068.204.204v.324c0 .032.008.052.024.06.024 0 .044-.012.06-.036.328-.432.784-.648 1.368-.648a2.26 2.26 0 0 1 1.44.492c.424.32.716.744.876 1.272zm-1.86 2.664c.192-.32.288-.74.288-1.26 0-.472-.084-.864-.252-1.176a.94.94 0 0 0-.876-.516c-.352 0-.624.172-.816.516-.16.296-.24.692-.24 1.188 0 .52.084.932.252 1.236.2.312.468.468.804.468a.93.93 0 0 0 .84-.456zm5.779 1.932c-.68 0-1.26-.176-1.74-.528s-.808-.832-.984-1.44a4.27 4.27 0 0 1-.168-1.224c0-.488.06-.912.18-1.272a2.6 2.6 0 0 1 .984-1.392c.48-.336 1.06-.504 1.74-.504.656 0 1.216.168 1.68.504a2.6 2.6 0 0 1 .984 1.38 4.06 4.06 0 0 1 .18 1.26c0 .416-.052.82-.156 1.212-.184.624-.516 1.116-.996 1.476-.472.352-1.04.528-1.704.528zm0-1.452a.97.97 0 0 0 .66-.24c.184-.16.316-.38.396-.66.064-.216.096-.496.096-.84 0-.336-.032-.62-.096-.852-.08-.272-.212-.484-.396-.636s-.412-.228-.684-.228a1.02 1.02 0 0 0-.672.228c-.184.152-.316.364-.396.636-.064.232-.096.516-.096.852 0 .328.032.608.096.84.08.28.212.5.396.66a1.05 1.05 0 0 0 .696.24zm7.16-4.908c.64 0 1.156.196 1.548.588s.588.924.588 1.596v3.876c0 .136-.068.204-.204.204H74.91c-.136 0-.204-.068-.204-.204v-3.528c0-.32-.088-.58-.264-.78s-.412-.3-.708-.3-.536.1-.72.3-.276.46-.276.78v3.528c0 .136-.068.204-.204.204H71.25c-.136 0-.204-.068-.204-.204v-5.76c0-.136.068-.204.204-.204h1.284c.136 0 .204.068.204.204v.336c0 .032.008.052.024.06s.032 0 .048-.024c.328-.448.812-.672 1.452-.672zm5.807 6.348c-.536 0-1.004-.076-1.404-.228s-.708-.364-.924-.636-.324-.58-.324-.924v-.06c0-.136.068-.204.204-.204h1.212c.136 0 .204.024.204.072v.084c0 .176.096.328.288.456.192.12.436.18.732.18.272 0 .492-.052.66-.156s.252-.24.252-.408c0-.144-.072-.252-.216-.324s-.38-.148-.708-.228l-.876-.276c-.52-.176-.932-.392-1.236-.648s-.456-.624-.456-1.104c0-.592.232-1.06.696-1.404.464-.352 1.072-.528 1.824-.528.512 0 .96.084 1.344.252.392.16.692.388.9.684.216.296.324.632.324 1.008 0 .04-.02.076-.06.108-.032.024-.08.036-.144.036h-1.176c-.136 0-.204-.024-.204-.072v-.072c0-.176-.088-.324-.264-.444s-.412-.18-.708-.18c-.264 0-.484.048-.66.144-.168.096-.252.228-.252.396 0 .16.08.28.24.36.168.08.44.164.816.252a5.91 5.91 0 0 1 .672.18c.576.168 1.028.384 1.356.648s.492.648.492 1.152c0 .592-.236 1.056-.708 1.392-.472.328-1.104.492-1.896.492zm6.047-6.348c.52 0 .984.092 1.392.276.408.176.724.42.948.732.232.312.348.66.348 1.044v4.008c0 .136-.068.204-.204.204h-1.284c-.136 0-.204-.068-.204-.204v-.288c0-.032-.008-.048-.024-.048-.016-.008-.036 0-.06.024-.368.408-.916.612-1.644.612-.616 0-1.112-.152-1.488-.456s-.564-.752-.564-1.344c0-.616.216-1.092.648-1.428.432-.344 1.048-.516 1.848-.516h1.212c.048 0 .072-.024.072-.072v-.252c0-.264-.084-.468-.252-.612-.16-.152-.396-.228-.708-.228-.24 0-.44.04-.6.12-.152.08-.256.192-.312.336-.048.112-.128.164-.24.156l-1.332-.168a.4.4 0 0 1-.156-.048.13.13 0 0 1-.036-.12 1.62 1.62 0 0 1 .408-.888c.24-.264.552-.468.936-.612.392-.152.824-.228 1.296-.228zm-.24 5.1c.344 0 .636-.092.876-.276s.36-.42.36-.708v-.42c0-.048-.024-.072-.072-.072h-.852c-.36 0-.644.068-.852.204a.65.65 0 0 0-.312.576.64.64 0 0 0 .228.516c.16.12.368.18.624.18zm9.568-3.432c.152.4.228.896.228 1.488 0 .576-.068 1.056-.204 1.44-.16.528-.452.956-.876 1.284-.416.32-.896.48-1.44.48-.584 0-1.04-.216-1.368-.648-.016-.024-.036-.032-.06-.024-.016 0-.024.016-.024.048v.324c0 .136-.068.204-.204.204h-1.284c-.136 0-.204-.068-.204-.204v-7.992c0-.136.068-.204.204-.204h1.284c.136 0 .204.068.204.204v2.472c0 .032.008.052.024.06.024.008.044 0 .06-.024.32-.392.776-.588 1.368-.588.544 0 1.016.152 1.416.456.408.304.7.712.876 1.224zm-1.8 2.7c.168-.312.252-.704.252-1.176 0-.52-.096-.94-.288-1.26a.93.93 0 0 0-.84-.456c-.336 0-.604.156-.804.468-.168.296-.252.708-.252 1.236 0 .496.08.892.24 1.188.192.344.464.516.816.516a.94.94 0 0 0 .876-.516zm3.956-4.86c-.304 0-.552-.092-.744-.276-.192-.192-.288-.436-.288-.732s.096-.536.288-.72c.192-.192.44-.288.744-.288.312 0 .56.092.744.276.192.184.288.428.288.732s-.096.548-.288.732c-.184.184-.432.276-.744.276zM96.963 29c-.136 0-.204-.068-.204-.204v-5.76c0-.136.068-.204.204-.204h1.284c.136 0 .204.068.204.204v5.76c0 .136-.068.204-.204.204h-1.284zm3.045 0c-.136 0-.204-.068-.204-.204v-7.992c0-.136.068-.204.204-.204h1.284c.136 0 .204.068.204.204v7.992c0 .136-.068.204-.204.204h-1.284zm3.697-6.756c-.304 0-.552-.092-.744-.276-.192-.192-.288-.436-.288-.732s.096-.536.288-.72c.192-.192.44-.288.744-.288.312 0 .56.092.744.276.192.184.288.428.288.732s-.096.548-.288.732c-.184.184-.432.276-.744.276zM103.069 29c-.136 0-.204-.068-.204-.204v-5.76c0-.136.068-.204.204-.204h1.284c.136 0 .204.068.204.204v5.76c0 .136-.068.204-.204.204h-1.284zm6.537-8.196c0-.136.068-.204.204-.204h1.284c.136 0 .204.068.204.204v7.992c0 .136-.068.204-.204.204h-1.284c-.136 0-.204-.068-.204-.204v-.324c0-.032-.012-.048-.036-.048-.016-.008-.032 0-.048.024-.328.432-.784.648-1.368.648-.544 0-1.028-.16-1.452-.48-.416-.328-.704-.756-.864-1.284-.136-.384-.204-.864-.204-1.44 0-.592.076-1.088.228-1.488.176-.512.464-.92.864-1.224.408-.304.884-.456 1.428-.456.592 0 1.048.196 1.368.588.016.024.032.032.048.024.024-.008.036-.028.036-.06v-2.472zm-.252 6.3c.16-.296.24-.692.24-1.188 0-.528-.084-.94-.252-1.236-.2-.312-.468-.468-.804-.468a.93.93 0 0 0-.84.456c-.192.32-.288.74-.288 1.26 0 .472.084.864.252 1.176a.94.94 0 0 0 .876.516c.352 0 .624-.172.816-.516zm5.683-4.368c.52 0 .984.092 1.392.276.408.176.724.42.948.732.232.312.348.66.348 1.044v4.008c0 .136-.068.204-.204.204h-1.284c-.136 0-.204-.068-.204-.204v-.288c0-.032-.008-.048-.024-.048-.016-.008-.036 0-.06.024-.368.408-.916.612-1.644.612-.616 0-1.112-.152-1.488-.456s-.564-.752-.564-1.344c0-.616.216-1.092.648-1.428.432-.344 1.048-.516 1.848-.516h1.212c.048 0 .072-.024.072-.072v-.252c0-.264-.084-.468-.252-.612-.16-.152-.396-.228-.708-.228-.24 0-.44.04-.6.12-.152.08-.256.192-.312.336-.048.112-.128.164-.24.156l-1.332-.168a.4.4 0 0 1-.156-.048.13.13 0 0 1-.036-.12 1.62 1.62 0 0 1 .408-.888c.24-.264.552-.468.936-.612.392-.152.824-.228 1.296-.228zm-.24 5.1c.344 0 .636-.092.876-.276s.36-.42.36-.708v-.42c0-.048-.024-.072-.072-.072h-.852c-.36 0-.644.068-.852.204a.65.65 0 0 0-.312.576.64.64 0 0 0 .228.516c.16.12.368.18.624.18zm7.828-7.032c0-.136.068-.204.204-.204h1.284c.136 0 .204.068.204.204v7.992c0 .136-.068.204-.204.204h-1.284c-.136 0-.204-.068-.204-.204v-.324c0-.032-.012-.048-.036-.048-.016-.008-.032 0-.048.024-.328.432-.784.648-1.368.648-.544 0-1.028-.16-1.452-.48-.416-.328-.704-.756-.864-1.284-.136-.384-.204-.864-.204-1.44 0-.592.076-1.088.228-1.488.176-.512.464-.92.864-1.224.408-.304.884-.456 1.428-.456.592 0 1.048.196 1.368.588.016.024.032.032.048.024.024-.008.036-.028.036-.06v-2.472zm-.252 6.3c.16-.296.24-.692.24-1.188 0-.528-.084-.94-.252-1.236-.2-.312-.468-.468-.804-.468a.93.93 0 0 0-.84.456c-.192.32-.288.74-.288 1.26 0 .472.084.864.252 1.176a.94.94 0 0 0 .876.516c.352 0 .624-.172.816-.516zm6.188.564c.528-.024.932-.208 1.212-.552.048-.056.1-.084.156-.084.048 0 .092.02.132.06l.684.66c.048.048.072.096.072.144 0 .056-.016.104-.048.144a2.78 2.78 0 0 1-1.02.78 3.23 3.23 0 0 1-1.344.276c-.736 0-1.348-.188-1.836-.564-.48-.376-.804-.892-.972-1.548-.096-.352-.144-.724-.144-1.116 0-.464.044-.856.132-1.176a2.57 2.57 0 0 1 .96-1.428c.488-.36 1.064-.54 1.728-.54.784 0 1.404.232 1.86.696.464.464.764 1.116.9 1.956l.072.876c0 .136-.068.204-.204.204h-3.684c-.048 0-.072.024-.072.072a1.74 1.74 0 0 0 .084.372 1.01 1.01 0 0 0 .468.576c.24.128.528.192.864.192zm-.312-3.48c-.256 0-.472.064-.648.192a.92.92 0 0 0-.348.516l-.072.3c-.008.048.012.072.06.072h2.04c.04 0 .06-.016.06-.048a.87.87 0 0 0-.048-.276 1.08 1.08 0 0 0-.372-.552c-.176-.136-.4-.204-.672-.204zM29.744 2.638a20.39 20.39 0 0 1-9.158-.505A8.99 8.99 0 0 1 17 0a8.7 8.7 0 0 1-3.586 2.133c-1.801.564-4.833 1.166-9.158.505L3 2.447v15.216a16.83 16.83 0 0 0 2.561 8.38c1.117 1.832 2.524 3.469 4.166 4.843a23.78 23.78 0 0 0 6.887 3.965L17 35l.386-.148c2.499-.924 4.825-2.265 6.887-3.965 1.642-1.37 3.049-3.007 4.166-4.843A16.83 16.83 0 0 0 31 17.663V2.447l-1.251.191h-.004zm-.928 15.021a14.91 14.91 0 0 1-2.242 7.231c-2.079 3.439-5.299 6.039-9.57 7.74-4.275-1.701-7.491-4.304-9.57-7.74a14.95 14.95 0 0 1-2.247-7.231V4.983C11.701 5.696 15.509 3.838 17 2.867c1.495.971 5.299 2.829 11.816 2.116v12.676z" fill="#fff"></path>
  <path d="M15.306 19.437l-3.028-3.033L11 17.685 15.306 22 23 14.282 21.722 13l-6.417 6.436z" fill="#31c27c"></path>
</svg>
