<svg width="80" height="80" viewBox="0 0 80 80" fill="none" xmlns="http://www.w3.org/2000/svg">
<g clip-path="url(#clip0_8_2)">
<g filter="url(#filter0_d_8_2)">
<path d="M58 18H22C19.7909 18 18 19.7909 18 22V58C18 60.2091 19.7909 62 22 62H58C60.2091 62 62 60.2091 62 58V22C62 19.7909 60.2091 18 58 18Z" fill="#000000"/>
</g>
<mask id="mask0_8_2" style="mask-type:luminance" maskUnits="userSpaceOnUse" x="27" y="27" width="26" height="26">
<path d="M53 27H27V53H53V27Z" fill="white"/>
</mask>
<g mask="url(#mask0_8_2)">
<path d="M49.75 40C49.75 42.0116 49.1407 43.881 48.0967 45.4337C46.3462 48.0371 43.3731 49.75 40 49.75C36.6269 49.75 33.6539 48.0371 31.9033 45.4337C30.8592 43.881 30.25 42.0116 30.25 40C30.25 34.6152 34.6152 30.25 40 30.25C45.3848 30.25 49.75 34.6152 49.75 40Z" fill="#000000" stroke="white" stroke-width="2"/>
<path d="M42.1666 36.75C42.1666 37.9467 41.1966 38.9167 40 38.9167C38.8033 38.9167 37.8333 37.9467 37.8333 36.75C37.8333 35.5534 38.8033 34.5833 40 34.5833C41.1966 34.5833 42.1666 35.5534 42.1666 36.75Z" fill="black" stroke="white" stroke-width="2"/>
<path d="M43.25 43.25H36.75C34.7872 43.25 33.1293 44.5549 32.5963 46.3444C34.3845 48.4292 37.038 49.75 40 49.75C42.9619 49.75 45.6155 48.4292 47.4036 46.3444C46.8706 44.5549 45.2127 43.25 43.25 43.25Z" fill="black" stroke="white" stroke-width="2"/>
</g>
</g>
<defs>
<filter id="filter0_d_8_2" x="-6" y="-6" width="92" height="92" filterUnits="userSpaceOnUse" color-interpolation-filters="sRGB">
<feFlood flood-opacity="0" result="BackgroundImageFix"/>
<feColorMatrix in="SourceAlpha" type="matrix" values="0 0 0 0 0 0 0 0 0 0 0 0 0 0 0 0 0 0 127 0" result="hardAlpha"/>
<feOffset/>
<feGaussianBlur stdDeviation="12"/>
<feComposite in2="hardAlpha" operator="out"/>
<feColorMatrix type="matrix" values="0 0 0 0 0 0 0 0 0 0 0 0 0 0 0 0 0 0 0.08 0"/>
<feBlend mode="normal" in2="BackgroundImageFix" result="effect1_dropShadow_8_2"/>
<feBlend mode="normal" in="SourceGraphic" in2="effect1_dropShadow_8_2" result="shape"/>
</filter>
<clipPath id="clip0_8_2">
<rect width="80" height="80" fill="white"/>
</clipPath>
</defs>
</svg>
